<?xml version="1.0" encoding="utf-8"?>
<!-- Generator: Adobe Illustrator 16.0.4, SVG Export Plug-In . SVG Version: 6.00 Build 0)  -->
<svg version="1.2" baseProfile="tiny" id="Layer_1" xmlns="http://www.w3.org/2000/svg" xmlns:xlink="http://www.w3.org/1999/xlink"
	 x="0px" y="0px" width="117.795px" height="117.806px" viewBox="0 0 117.795 117.806" xml:space="preserve">
<g>
	<path fill-rule="evenodd" fill="#FFFFFF" d="M114.6,87.523v0.353h-0.844v2.396h-0.413v-2.396h-0.837v-0.353H114.6z M117.257,90.271
		l-0.11-1.657c-0.014-0.215,0-0.477-0.007-0.746h-0.021c-0.067,0.256-0.15,0.546-0.233,0.787l-0.573,1.582h-0.318l-0.559-1.623
		c-0.069-0.221-0.139-0.49-0.2-0.746h-0.021c-0.007,0.264,0,0.498-0.014,0.746l-0.103,1.657h-0.401l0.214-2.748h0.545l0.539,1.491
		c0.069,0.208,0.124,0.435,0.193,0.691h0.014c0.063-0.257,0.125-0.497,0.194-0.698l0.538-1.484h0.539l0.208,2.748H117.257z"/>
	<path fill="none" stroke="#FFFFFF" stroke-width="0.216" stroke-miterlimit="2.613" d="M114.6,87.523v0.353h-0.844v2.396h-0.413
		v-2.396h-0.837v-0.353H114.6z M117.257,90.271l-0.11-1.657c-0.014-0.215,0-0.477-0.007-0.746h-0.021
		c-0.067,0.256-0.15,0.546-0.233,0.787l-0.573,1.582h-0.318l-0.559-1.623c-0.069-0.221-0.139-0.49-0.2-0.746h-0.021
		c-0.007,0.264,0,0.498-0.014,0.746l-0.103,1.657h-0.401l0.214-2.748h0.545l0.539,1.491c0.069,0.208,0.124,0.435,0.193,0.691h0.014
		c0.063-0.257,0.125-0.497,0.194-0.698l0.538-1.484h0.539l0.208,2.748H117.257z"/>
	<path fill-rule="evenodd" fill="#FFFFFF" d="M21.673,91.916c-12.668,9.46-21.385,22.897-17.946,24.998L0.721,115.4
		C-1.018,113.277,2.933,101.879,21.673,91.916"/>
	<path fill="none" stroke="#FFFFFF" stroke-width="0.7" stroke-miterlimit="2.613" d="M21.673,91.916
		c-12.668,9.46-21.385,22.897-17.946,24.998L0.721,115.4C-1.018,113.277,2.933,101.879,21.673,91.916z"/>
	<path fill-rule="evenodd" fill="#FFFFFF" d="M116.844,81.308c6.488-13.808-46.886-11.735-85.884,6.368
		C61.315,75.981,117.493,70.946,116.844,81.308"/>
	<path fill="none" stroke="#FFFFFF" stroke-width="0.7" stroke-miterlimit="2.613" d="M116.844,81.308
		c6.488-13.808-46.886-11.735-85.884,6.368C61.315,75.981,117.493,70.946,116.844,81.308z"/>
	<path fill-rule="evenodd" fill="#FFFFFF" d="M56.465,7.77c1.458-7.671-2.29-7.401-3.342-7.401l-2.367-0.018
		c-1.303,0-2.476,1.047-3.047,3.177c-3.698,13.803,3.015,48.841,21.849,65.049c16.631,14.311,45.583,20.859,46.749,13.94
		c-6.017,2.89-28.618-4.382-43.813-16.481C54.539,51.297,46.861,14.944,50.727,3.578c0.385-1.133,1.32-2.457,1.735-2.753
		C54.074,1.632,56.026,3.615,56.465,7.77"/>
	<path fill="none" stroke="#FFFFFF" stroke-width="0.7" stroke-miterlimit="2.613" d="M56.465,7.77
		c1.458-7.671-2.29-7.401-3.342-7.401l-2.367-0.018c-1.303,0-2.476,1.047-3.047,3.177c-3.698,13.803,3.015,48.841,21.849,65.049
		c16.631,14.311,45.583,20.859,46.749,13.94c-6.017,2.89-28.618-4.382-43.813-16.481C54.539,51.297,46.861,14.944,50.727,3.578
		c0.385-1.133,1.32-2.457,1.735-2.753C54.074,1.632,56.026,3.615,56.465,7.77z"/>
	<path fill-rule="evenodd" fill="#FFFFFF" d="M56.151,9.982c-1.654,8.14-2.371,27.368-18.069,58.978
		c-16.86,33.95-29.168,49.781-37.361,46.44l2.928,1.502c6.417,3.278,18.233-7.502,37.84-45.272
		C56.589,42.54,55.772,27.567,56.151,9.982"/>
	<path fill="none" stroke="#FFFFFF" stroke-width="0.7" stroke-miterlimit="2.613" d="M56.151,9.982
		c-1.654,8.14-2.371,27.368-18.069,58.978c-16.86,33.95-29.168,49.781-37.361,46.44l2.928,1.502
		c6.417,3.278,18.233-7.502,37.84-45.272C56.589,42.54,55.772,27.567,56.151,9.982z"/>
</g>
</svg>
