<?xml version="1.0" encoding="UTF-8" standalone="no"?>
<svg width="15px" height="18px" viewBox="0 0 15 18" version="1.1" xmlns="http://www.w3.org/2000/svg" xmlns:xlink="http://www.w3.org/1999/xlink" xmlns:sketch="http://www.bohemiancoding.com/sketch/ns">
    <!-- Generator: Sketch 3.3.2 (12043) - http://www.bohemiancoding.com/sketch -->
    <title>Group</title>
    <desc>Created with Sketch.</desc>
    <defs></defs>
    <g id="styles" stroke="none" stroke-width="1" fill="none" fill-rule="evenodd" sketch:type="MSPage">
        <g id="Styles" sketch:type="MSArtboardGroup" transform="translate(-624.000000, -2405.000000)" fill="#FA9D1B">
            <g id="Group" sketch:type="MSLayerGroup" transform="translate(624.000000, 2405.000000)">
                <path d="M11.5,18 L3.5,18 C1.8,18 0.5,16.7 0.5,15 L0.5,3 C0.5,1.3 1.8,0 3.5,0 L11.5,0 C13.2,0 14.5,1.3 14.5,3 L14.5,15 C14.5,16.7 13.2,18 11.5,18 L11.5,18 Z M3.5,2 C2.9,2 2.5,2.4 2.5,3 L2.5,15 C2.5,15.6 2.9,16 3.5,16 L11.5,16 C12.1,16 12.5,15.6 12.5,15 L12.5,3 C12.5,2.4 12.1,2 11.5,2 L3.5,2 L3.5,2 Z" id="Shape" sketch:type="MSShapeGroup"></path>
                <circle id="Oval" sketch:type="MSShapeGroup" cx="4.5" cy="8" r="1"></circle>
                <circle id="Oval" sketch:type="MSShapeGroup" cx="7.5" cy="8" r="1"></circle>
                <circle id="Oval" sketch:type="MSShapeGroup" cx="10.5" cy="8" r="1"></circle>
                <circle id="Oval" sketch:type="MSShapeGroup" cx="4.5" cy="11" r="1"></circle>
                <circle id="Oval" sketch:type="MSShapeGroup" cx="7.5" cy="11" r="1"></circle>
                <circle id="Oval" sketch:type="MSShapeGroup" cx="10.5" cy="11" r="1"></circle>
                <circle id="Oval" sketch:type="MSShapeGroup" cx="4.5" cy="14" r="1"></circle>
                <circle id="Oval" sketch:type="MSShapeGroup" cx="7.5" cy="14" r="1"></circle>
                <circle id="Oval" sketch:type="MSShapeGroup" cx="10.5" cy="14" r="1"></circle>
                <path d="M10.5,4 L10.5,5 L4.5,5 L4.5,4 L10.5,4 L10.5,4 Z M11.5,3 L3.5,3 L3.5,6 L11.5,6 L11.5,3 L11.5,3 Z" id="Shape" sketch:type="MSShapeGroup"></path>
            </g>
        </g>
    </g>
</svg>