<?xml version="1.0" encoding="UTF-8" standalone="no"?>
<svg width="16px" height="19px" viewBox="0 0 16 19" version="1.1" xmlns="http://www.w3.org/2000/svg" xmlns:xlink="http://www.w3.org/1999/xlink" xmlns:sketch="http://www.bohemiancoding.com/sketch/ns">
    <!-- Generator: Sketch 3.3.2 (12043) - http://www.bohemiancoding.com/sketch -->
    <title>Shape</title>
    <desc>Created with Sketch.</desc>
    <defs></defs>
    <g id="styles" stroke="none" stroke-width="1" fill="none" fill-rule="evenodd" sketch:type="MSPage">
        <g id="Styles" sketch:type="MSArtboardGroup" transform="translate(-65.000000, -2455.000000)" fill="#8B8B8B">
            <g id="Docs-+-Shape" sketch:type="MSLayerGroup" transform="translate(65.000000, 2455.468500)">
                <path d="M15.707,4.293 L11.707,0.293 C11.52,0.105 11.266,0 11,0 L3,0 C1.346,0 0,1.346 0,3 L0,15 C0,16.654 1.346,18 3,18 L13,18 C14.654,18 16,16.654 16,15 L16,5 C16,4.734 15.895,4.48 15.707,4.293 L15.707,4.293 Z M13.586,5 L12.5,5 C11.673,5 11,4.327 11,3.5 L11,2.414 L13.586,5 L13.586,5 Z M13,16 L3,16 C2.448,16 2,15.552 2,15 L2,3 C2,2.448 2.448,2 3,2 L10,2 L10,3.5 C10,4.879 11.121,6 12.5,6 L14,6 L14,15 C14,15.552 13.552,16 13,16 L13,16 Z" id="Shape" sketch:type="MSShapeGroup"></path>
            </g>
        </g>
    </g>
</svg>