<?xml version="1.0" encoding="utf-8"?>
<!-- Generator: Adobe Illustrator 16.0.4, SVG Export Plug-In . SVG Version: 6.00 Build 0)  -->
<svg version="1.2" baseProfile="tiny" id="Layer_1" xmlns="http://www.w3.org/2000/svg" xmlns:xlink="http://www.w3.org/1999/xlink"
	 x="0px" y="0px" width="274.493px" height="83.717px" viewBox="0 0 274.493 83.717" xml:space="preserve">
<polygon fill="#FFFFFE" points="41.245,0 32.112,18.521 50.367,18.521 "/>
<polygon fill="#FFFFFE" points="29.401,24.064 12.427,58.41 19.33,71.066 57.201,71.066 51.27,58.87 25.513,58.87 36.721,35.994 
	58.959,35.988 53.095,24.064 "/>
<polygon fill="#FFFFFE" points="40.281,41.305 34.129,53.688 54.529,53.681 69.385,83.716 82.542,83.716 61.609,41.305 "/>
<polygon fill="#FFFFFE" points="0,83.717 13.207,83.717 17.031,75.829 10.114,63.15 "/>
<g>
	<path fill="#FFFFFE" d="M86.495,80.501c0.059-0.008,0.134-0.015,0.244-0.015c0.382,0,0.514,0.184,0.514,0.372
		c0,0.262-0.238,0.361-0.517,0.361h-0.241V80.501z M86.495,81.478h0.233c0.271,0,0.407,0.104,0.455,0.368
		c0.046,0.28,0.097,0.471,0.148,0.541h0.352c-0.037-0.067-0.085-0.193-0.131-0.521c-0.045-0.312-0.168-0.48-0.354-0.515v-0.017
		c0.224-0.065,0.41-0.238,0.41-0.509c0-0.202-0.068-0.348-0.191-0.44c-0.132-0.098-0.341-0.163-0.662-0.163
		c-0.254,0-0.417,0.028-0.595,0.053v2.112h0.335V81.478z M86.855,79.685c0.843,0,1.51,0.717,1.51,1.605
		c0,0.893-0.667,1.615-1.504,1.605c-0.848,0-1.521-0.713-1.521-1.609c0-0.885,0.673-1.602,1.507-1.602H86.855z M86.851,79.394
		c-1.036,0-1.875,0.833-1.875,1.891c0,1.069,0.839,1.903,1.875,1.903c1.041,0,1.863-0.834,1.863-1.903
		c0-1.058-0.822-1.891-1.855-1.891H86.851z"/>
	<path fill="#FFFFFE" d="M271.249,45.205l-2.35-1.035c-1.497-0.646-2.211-1.475-2.211-2.649c0-1.404,1.036-2.395,2.511-2.395
		c1.175,0,2.073,0.645,2.787,1.889l1.609-1.036c-0.804-1.634-2.277-2.484-4.259-2.484c-2.741,0-4.626,1.747-4.626,4.049
		c0,2.004,1.058,3.432,3.244,4.353l2.004,0.852c1.705,0.737,2.557,1.819,2.557,3.293c0,1.797-1.312,3.063-3.294,3.063
		c-1.658,0-2.786-1.037-3.27-3.04l-1.771,0.875c0.622,2.44,2.438,3.819,5.041,3.819c3.18,0,5.271-2.023,5.271-5.04
		C274.493,47.646,273.413,46.127,271.249,45.205 M252.923,54.345h8.17v-1.862h-6.216V37.886h-1.954V54.345z M241.894,41.567
		l2.624,6.057h-5.248L241.894,41.567z M241.894,37.241l-7.458,17.104h2.117l2.141-5.042h6.423l2.141,5.042h2.117L241.894,37.241z
		 M228.91,54.345h1.954V37.886h-1.954V54.345z M214.728,54.345h1.907v-7.852h0.277l6.01,7.852h2.485l-6.284-7.852h0.346
		c2.902,0,4.442-1.425,4.442-4.12c0-1.612-0.598-2.925-1.54-3.661c-1.013-0.781-2.211-0.827-3.778-0.827h-0.506h-3.359V54.345z
		 M216.635,39.541h1.498c2.604,0,3.848,0.461,3.848,2.856c0,2.281-1.268,2.649-3.848,2.649h-1.498V39.541z M200.89,54.345h8.678
		v-1.816h-6.724v-6.311h6.724v-1.816h-6.724v-4.723h6.724v-1.793h-8.678V54.345z M190.253,54.345h1.979V39.748h4.627v-1.862h-11.255
		v1.862h4.649V54.345z M177.627,41.567l2.624,6.057h-5.248L177.627,41.567z M177.627,37.241l-7.458,17.104h2.118l2.141-5.042h6.422
		l2.142,5.042h2.118L177.627,37.241z M158.955,54.989l5.088-11.834l2.095,11.189h1.91l-3.338-17.104l-5.755,13.607L153.2,37.241
		l-3.338,17.104h1.911l2.071-11.189L158.955,54.989z M128.587,48.289h4.469c-0.231,1.774-1.866,3.065-4.192,3.065
		c-2.649,0-4.33-1.89-4.33-5.044c0-3.177,1.704-5.02,4.33-5.02c1.451,0,2.602,0.622,3.524,1.889l3.889-1.866
		c-1.703-2.508-4.212-3.796-7.413-3.796c-5.066,0-8.794,3.612-8.794,8.609c0,2.323,0.898,4.583,2.462,6.171
		c1.657,1.679,3.706,2.438,6.332,2.438c5.342,0,8.562-3.22,8.562-8.908c0-0.321,0-0.644-0.022-0.988h-8.817V48.289z M116.384,38.529
		c-1.428-0.69-2.786-1.035-4.26-1.035c-4.857,0-8.354,3.658-8.354,8.632c0,4.974,3.497,8.632,8.354,8.632
		c1.474,0,2.832-0.346,4.26-1.035v-4.902c-1.197,1.335-2.349,1.98-3.799,1.98c-2.625,0-4.329-2.049-4.329-4.583
		c0-2.787,1.727-4.767,4.329-4.767c1.45,0,2.602,0.645,3.799,1.98V38.529z M90.773,48.2l1.658-5.436
		c0.069-0.253,0.276-0.99,0.575-2.21c0.3,1.22,0.484,1.957,0.553,2.21l1.68,5.436H90.773z M84.489,54.345h4.466l0.852-2.947h6.376
		l0.829,2.947h4.466l-5.686-16.459h-5.617L84.489,54.345z"/>
</g>
</svg>
