<?xml version="1.0" encoding="UTF-8" standalone="no"?>
<svg width="287px" height="135px" viewBox="0 0 287 135" version="1.1" xmlns="http://www.w3.org/2000/svg" xmlns:xlink="http://www.w3.org/1999/xlink" xmlns:sketch="http://www.bohemiancoding.com/sketch/ns">
    <!-- Generator: Sketch 3.3.3 (12072) - http://www.bohemiancoding.com/sketch -->
    <title>Untitled</title>
    <desc>Created with Sketch.</desc>
    <defs></defs>
    <g id="Page-1" stroke="none" stroke-width="1" fill="none" fill-rule="evenodd" sketch:type="MSPage">
        <g id="logo-mobile" sketch:type="MSLayerGroup" fill="#ED952D">
            <g id="HOME" sketch:type="MSShapeGroup">
                <g id="Home---DHD-Final">
                    <g id="logo">
                        <path d="M221.800448,44.6627845 C221.800448,44.133357 221.143524,44 220.747242,44 C218.767162,44 212.963892,46.5151138 212.70059,49.4236309 C212.173987,54.9806188 209.532994,69.927276 203.731054,83.2869844 C197.927783,96.7787162 192.915747,104.849484 190.012782,104.849484 C188.297334,104.849484 187.373119,102.203681 187.373119,96.2506223 C187.373119,83.0229374 189.221548,75.3482397 192.652446,56.1714972 C192.652446,56.1714972 192.652446,55.1126422 191.065988,55.1126422 C187.507429,55.9047831 185.264048,56.0381401 183.023326,56.0381401 C181.964801,56.0381401 181.439528,57.7571124 181.439528,57.7571124 C180.120361,63.4447902 178.141611,76.1443812 178.141611,87.6530939 C178.141611,87.9598151 178.153579,88.2451991 178.156239,88.5479196 C178.150919,88.5585882 178.14826,88.5692568 178.14294,88.5812589 C175.239976,96.2506223 172.073709,99.5565434 169.438035,99.5565434 C166.404749,99.5565434 164.162698,95.193101 164.162698,88.1811878 C164.162698,81.5666785 167.985888,68.2083037 171.678757,60.7989865 C171.678757,60.7989865 172.073709,60.0068457 172.073709,59.0800142 C172.073709,57.2290185 169.438035,53.7884068 167.722586,53.7884068 C166.668051,53.7884068 159.675935,61.1963905 155.057521,64.236931 C153.741014,65.0330725 152.816799,65.5611664 152.159875,65.5611664 C151.234331,65.5611664 150.972359,64.6356686 150.972359,62.3872688 C150.972359,59.8734886 151.631942,56.566234 151.631942,53.7884068 C151.631942,50.4824858 150.707728,47.7046586 146.750227,47.7046586 C142.658416,47.7046586 140.549345,52.598862 140.549345,58.0224929 C140.549345,62.5192923 142.001493,67.4134957 144.905787,70.1926565 C143.45364,81.7000356 137.64904,98.6310455 130.261972,108.287429 C130,108.552809 130,108.816856 130,109.082237 C130,110.139758 131.714119,110.405139 133.163607,110.405139 C134.220802,110.405139 135.142357,110.270448 135.142357,110.005068 C140.946957,101.408873 148.069394,83.1562945 149.1226,72.438389 C149.649203,72.5730797 150.444426,72.5730797 151.10534,72.5730797 C153.873994,72.5730797 156.77297,72.0449858 158.883371,70.9847973 C157.698514,75.3482397 155.585454,84.7419097 155.585454,93.2087482 C155.585454,101.67292 157.698514,109.212927 164.953932,109.212927 C171.646842,109.212927 176.104349,102.837127 178.630979,96.2559566 C179.799878,105.720306 183.008698,110.667852 187.373119,110.667852 C192.915747,110.667852 200.300156,102.467728 207.160621,85.2700036 C209.929276,78.262091 211.776376,71.6475818 213.228523,68.8684211 C213.228523,72.0449858 219.030463,93.4741287 219.030463,104.32139 C219.030463,109.476974 215.603555,111.992087 212.302978,111.992087 C209.006391,111.992087 205.840125,109.610331 205.840125,105.112198 C205.840125,104.185366 205.974435,103.129179 206.237737,102.070324 C205.579483,101.806277 205.183201,101.806277 204.655268,101.806277 C201.621982,101.806277 200.826759,105.509602 200.826759,108.287429 C200.826759,115.164651 207.160621,119 213.757785,119 C220.747242,119 228,114.504534 228,104.32139 C228,93.4741287 219.821698,73.1011735 219.821698,63.5768137 C219.821698,53.3923364 221.800448,44.7934744 221.800448,44.6627845" id="Fill-11"></path>
                        <path d="M188.435841,48 C192.574694,48 196,42.5453349 196,38.2268937 C196,35.3883086 194.582491,33 190.801096,33 C186.071955,33 183,38.0004389 183,42.204336 C183,45.2733257 184.651707,48 188.435841,48" id="Fill-12"></path>
                        <path d="M285.641379,55.1377153 C282.328736,27.0858839 256.962787,7.03992488 228.975933,10.3594005 C214.442791,12.0843565 202.079131,19.7814404 194,30.7021691 C201.484316,22.6829869 211.719652,17.1620628 223.449993,15.7698529 C249.838281,12.6380461 273.757024,31.5406894 276.878476,57.9926773 C278.709392,73.485338 272.975001,88.1048728 262.626809,98.2070459 C257.958571,102.230612 253.666076,103.017224 251.221758,103.06514 C250.091874,103.047837 249.315162,102.933372 248.781422,102.80826 C245.150128,101.788725 242.091078,97.3685256 241.407306,87.8772744 C255.235433,79.9565851 261.292458,68.8654904 261.292458,60.6825971 C261.292458,54.6093144 258.001058,50.2530018 252.074149,50.2530018 C239.298898,50.2530018 231.002022,67.8100197 231.002022,83.7858278 C231.002022,96.986533 236.667372,109 250.231284,109 C251.150061,109 252.046267,108.914817 252.917247,108.757761 C252.917247,108.757761 252.917247,108.759092 252.919902,108.759092 C252.919902,108.759092 253.245192,108.705852 253.82673,108.552789 C254.445444,108.401057 255.048225,108.210726 255.635074,107.98579 C258.913197,106.817185 264.769737,103.980857 271.015297,97.3432369 C271.015297,97.3432369 271.004675,97.3472298 271.003348,97.3485608 C281.688779,86.6527686 287.554613,71.3371288 285.641379,55.1377153 L285.641379,55.1377153 L285.641379,55.1377153 Z M251.677163,57.9088252 C253.125697,57.9088252 253.651472,59.2291619 253.651472,60.4164002 C253.651472,66.8876473 246.542898,78.7693468 241.273207,82.3337236 C241.53875,70.5824606 245.887008,57.9088252 251.677163,57.9088252 L251.677163,57.9088252 L251.677163,57.9088252 Z" id="Fill-13"></path>
                        <path d="M134.350271,131.431683 C134.350271,131.431683 133.462977,132.325096 132.575683,132.325096 C125.215659,132.325096 122.806151,114.239488 122.806151,92.3348742 C122.806151,88.5132012 122.806151,84.4368388 122.932338,80.2364655 C125.723064,80.1071206 128.516446,79.9804427 130.925954,79.9804427 C132.954244,79.9804427 136,80.6151658 136,80.6151658 C136,80.1071206 135.617454,75.5240466 123.187369,74.1212552 C124.328365,48.3949684 127.372793,20.6311672 129.022522,6.23922126 C129.529927,2.16552582 129.657442,1.78415859 129.657442,1.40145791 C129.657442,1.40145791 129.657442,0.509378611 128.516446,0.509378611 L123.56593,0 C123.56593,0 122.42759,0 122.046372,1.01875722 C114.431318,22.923371 108.091416,31.7121522 97.5607777,49.6697484 C92.8679489,57.6917948 86.0166579,67.1152991 77.8968554,76.5428038 L77.5873651,76.8881678 C63.1568833,78.1696151 39.5878049,79.3230509 37.6352268,73.4531958 L37.6246005,73.4638635 C37.6246005,73.4638635 37.4187165,73.4505289 37.4798175,73.9559072 C37.6750754,76.6414792 40.7593517,84.4501733 69.7677548,85.6209441 L68.8897588,86.6023647 C22.8341537,136.501467 4.15183359,127.858032 1.16452196,125.899191 C1.16452196,125.899191 0.797915469,125.835185 1.15920883,126.415237 C3.20343852,129.906214 13.1469756,142.309983 44.155775,124.067028 C59.3261111,114.582185 71.9913029,100.072895 82.4648254,84.820873 C91.724296,83.546093 101.238797,82.271313 110.247222,81.3792337 C109.359928,88.8945684 108.851195,96.0285359 108.851195,102.653125 C108.851195,121.373455 113.292978,135 128.642633,135 C132.446839,135 134.605301,133.982576 134.605301,131.815717 C134.605301,131.431683 134.350271,131.431683 134.350271,131.431683 L134.350271,131.431683 L134.350271,131.431683 Z M111.134516,73.9932438 C105.979444,74.2465997 98.0748237,75 88.665257,75.7600676 L88.7104187,75.7120633 C88.7104187,75.7120633 88.6028276,75.7267313 88.4474184,75.746733 C102.136717,53.8514535 111.644577,32.2175304 117.985807,23.0527158 C116.844811,37.8233621 113.419165,56.2916704 111.134516,73.9932438 L111.134516,73.9932438 L111.134516,73.9932438 Z" id="Fill-14"></path>
                    </g>
                </g>
            </g>
        </g>
    </g>
</svg>