<?xml version="1.0" encoding="UTF-8" standalone="no"?>
<svg width="19px" height="19px" viewBox="0 0 19 19" version="1.1" xmlns="http://www.w3.org/2000/svg" xmlns:xlink="http://www.w3.org/1999/xlink" xmlns:sketch="http://www.bohemiancoding.com/sketch/ns">
    <!-- Generator: Sketch 3.3.2 (12043) - http://www.bohemiancoding.com/sketch -->
    <title>Shape</title>
    <desc>Created with Sketch.</desc>
    <defs></defs>
    <g id="styles" stroke="none" stroke-width="1" fill="none" fill-rule="evenodd" sketch:type="MSPage">
        <g id="Styles" sketch:type="MSArtboardGroup" transform="translate(-622.000000, -2550.000000)" fill="#FA9D1B">
            <path d="M631.398162,2554.33216 L632.398162,2551.39816 C632.470162,2551.18516 632.476162,2550.94616 632.398162,2550.71616 C632.210162,2550.16316 631.609162,2549.86816 631.057162,2550.05716 C630.504162,2550.24616 630.210162,2550.84516 630.398162,2551.39816 L631.398162,2554.33216 L631.398162,2554.33216 Z M623.398162,2558.39816 C623.185162,2558.32616 622.946162,2558.32016 622.716162,2558.39816 C622.163162,2558.58616 621.868162,2559.18716 622.057162,2559.73916 C622.246162,2560.29216 622.845162,2560.58616 623.398162,2560.39816 L626.332162,2559.39816 L623.398162,2558.39816 L623.398162,2558.39816 Z M631.398162,2564.46416 L630.398162,2567.39816 C630.326162,2567.61116 630.320162,2567.85016 630.398162,2568.08016 C630.586162,2568.63316 631.187162,2568.92816 631.739162,2568.73916 C632.292162,2568.55016 632.586162,2567.95116 632.398162,2567.39816 L631.398162,2564.46416 L631.398162,2564.46416 Z M640.739162,2559.05516 C640.551162,2558.50216 639.951162,2558.20716 639.398162,2558.39616 L636.464162,2559.39616 L639.398162,2560.39616 C639.611162,2560.46816 639.850162,2560.47416 640.080162,2560.39616 C640.632162,2560.20816 640.927162,2559.60716 640.739162,2559.05516 L640.739162,2559.05516 Z M625.034162,2554.44816 L627.815162,2555.81516 L626.448162,2553.03416 C626.348162,2552.83216 626.183162,2552.65916 625.966162,2552.55216 C625.442162,2552.29416 624.809162,2552.51016 624.551162,2553.03416 C624.294162,2553.55716 624.510162,2554.19116 625.034162,2554.44816 L625.034162,2554.44816 Z M624.551162,2564.83016 C624.294162,2565.35316 624.510162,2565.98616 625.033162,2566.24416 C625.556162,2566.50116 626.190162,2566.28516 626.447162,2565.76216 L627.814162,2562.98116 L625.033162,2564.34816 C624.832162,2564.44716 624.659162,2564.61116 624.551162,2564.83016 L624.551162,2564.83016 Z M637.761162,2564.34716 L634.980162,2562.98016 L636.347162,2565.76116 C636.447162,2565.96316 636.611162,2566.13616 636.829162,2566.24316 C637.352162,2566.50016 637.985162,2566.28416 638.243162,2565.76116 C638.501162,2565.23816 638.285162,2564.60416 637.761162,2564.34716 L637.761162,2564.34716 Z M638.242162,2553.96416 C638.500162,2553.44016 638.284162,2552.80716 637.761162,2552.54916 C637.238162,2552.29216 636.604162,2552.50816 636.347162,2553.03116 L634.978162,2555.81416 L637.760162,2554.44616 C637.962162,2554.34616 638.135162,2554.18216 638.242162,2553.96416 L638.242162,2553.96416 Z M631.398162,2554.89816 C628.917162,2554.89816 626.898162,2556.91716 626.898162,2559.39816 C626.898162,2561.87916 628.917162,2563.89816 631.398162,2563.89816 C633.879162,2563.89816 635.898162,2561.87916 635.898162,2559.39816 C635.898162,2556.91716 633.879162,2554.89816 631.398162,2554.89816 L631.398162,2554.89816 Z" id="Shape" sketch:type="MSShapeGroup"></path>
        </g>
    </g>
</svg>