<?xml version="1.0" encoding="UTF-8" standalone="no"?>
<svg width="179px" height="149px" viewBox="0 0 179 149" version="1.1" xmlns="http://www.w3.org/2000/svg" xmlns:xlink="http://www.w3.org/1999/xlink" xmlns:sketch="http://www.bohemiancoding.com/sketch/ns">
    <!-- Generator: Sketch 3.3.1 (12002) - http://www.bohemiancoding.com/sketch -->
    <title>Untitled 2</title>
    <desc>Created with Sketch.</desc>
    <defs></defs>
    <g id="Page-1" stroke="none" stroke-width="1" fill="none" fill-rule="evenodd" sketch:type="MSPage">
        <path d="M88.372,0 L76.553,23.967 L100.176,23.967 L88.372,0 Z" id="Shape" fill="#FFFFFF" sketch:type="MSShapeGroup"></path>
        <path d="M73.045,31.139 L51.081,75.582 L60.015,91.961 L109.019,91.961 L101.345,76.178 L68.015,76.178 L82.517,46.577 L111.293,46.569 L103.705,31.139 L73.045,31.139 Z" id="Shape" fill="#FFFFFF" sketch:type="MSShapeGroup"></path>
        <path d="M87.125,53.449 L79.164,69.471 L105.561,69.464 L124.784,108.329 L141.81,108.329 L114.723,53.449 L87.125,53.449 Z" id="Shape" fill="#FFFFFF" sketch:type="MSShapeGroup"></path>
        <path d="M35,108.329 L52.09,108.329 L57.039,98.123 L48.088,81.717 L35,108.329 Z" id="Shape" fill="#FFFFFF" sketch:type="MSShapeGroup"></path>
        <path d="M144.932,104.852 C145.008,104.842 145.105,104.834 145.246,104.834 C145.741,104.834 145.912,105.071 145.912,105.315 C145.912,105.653 145.603,105.782 145.242,105.782 L144.931,105.782 L144.931,104.852 L144.932,104.852 Z M144.932,106.116 L145.233,106.116 C145.585,106.116 145.759,106.251 145.822,106.592 C145.882,106.955 145.947,107.203 146.013,107.293 L146.469,107.293 C146.421,107.206 146.359,107.043 146.299,106.617 C146.239,106.214 146.08,105.996 145.84,105.952 L145.84,105.931 C146.131,105.847 146.371,105.622 146.371,105.271 C146.371,105.01 146.283,104.823 146.124,104.703 C145.953,104.577 145.683,104.492 145.268,104.492 C144.94,104.492 144.728,104.528 144.497,104.56 L144.497,107.293 L144.932,107.293 L144.932,106.116 L144.932,106.116 Z M145.398,103.797 C146.488,103.797 147.352,104.724 147.352,105.873 C147.352,107.028 146.488,107.963 145.405,107.952 C144.309,107.952 143.437,107.028 143.437,105.868 C143.437,104.723 144.309,103.797 145.387,103.797 L145.398,103.797 L145.398,103.797 Z M145.392,103.42 C144.052,103.42 142.965,104.498 142.965,105.865 C142.965,107.251 144.052,108.329 145.392,108.329 C146.739,108.329 147.803,107.251 147.803,105.865 C147.803,104.498 146.739,103.42 145.402,103.42 L145.392,103.42 L145.392,103.42 Z" id="Shape" fill="#FFFFFF" sketch:type="MSShapeGroup"></path>
        <path d="M175.934,139.058 L173.72,138.081 C172.31,137.474 171.637,136.692 171.637,135.587 C171.637,134.263 172.615,133.331 174.003,133.331 C175.109,133.331 175.955,133.937 176.628,135.109 L178.145,134.131 C177.387,132.592 175.999,131.791 174.133,131.791 C171.551,131.791 169.776,133.437 169.776,135.606 C169.776,137.494 170.772,138.839 172.832,139.707 L174.72,140.51 C176.325,141.203 177.128,142.224 177.128,143.612 C177.128,145.304 175.891,146.498 174.025,146.498 C172.463,146.498 171.4,145.521 170.945,143.635 L169.277,144.458 C169.862,146.758 171.573,148.057 174.025,148.057 C177.019,148.057 178.991,146.151 178.991,143.31 C178.99,141.356 177.972,139.925 175.934,139.058 L175.934,139.058 Z M158.67,147.666 L166.367,147.666 L166.367,145.912 L160.511,145.912 L160.511,132.161 L158.67,132.161 L158.67,147.666 L158.67,147.666 Z M148.28,135.63 L150.752,141.337 L145.808,141.337 L148.28,135.63 L148.28,135.63 Z M148.28,131.554 L141.254,147.666 L143.249,147.666 L145.265,142.916 L151.316,142.916 L153.333,147.666 L155.328,147.666 L148.28,131.554 L148.28,131.554 Z M136.049,147.666 L137.89,147.666 L137.89,132.161 L136.049,132.161 L136.049,147.666 L136.049,147.666 Z M122.689,147.666 L124.486,147.666 L124.486,140.27 L124.746,140.27 L130.409,147.666 L132.75,147.666 L126.83,140.27 L127.155,140.27 C129.888,140.27 131.34,138.928 131.34,136.389 C131.34,134.869 130.778,133.633 129.889,132.941 C128.935,132.204 127.806,132.161 126.331,132.161 L125.852,132.161 L122.689,132.161 L122.689,147.666 L122.689,147.666 Z M124.486,133.72 L125.897,133.72 C128.348,133.72 129.521,134.155 129.521,136.411 C129.521,138.559 128.327,138.906 125.897,138.906 L124.486,138.906 L124.486,133.72 L124.486,133.72 Z M109.654,147.666 L117.828,147.666 L117.828,145.955 L111.494,145.955 L111.494,140.011 L117.828,140.011 L117.828,138.3 L111.494,138.3 L111.494,133.851 L117.828,133.851 L117.828,132.162 L109.654,132.162 L109.654,147.666 L109.654,147.666 Z M99.633,147.666 L101.496,147.666 L101.496,133.915 L105.855,133.915 L105.855,132.161 L95.252,132.161 L95.252,133.915 L99.633,133.915 L99.633,147.666 L99.633,147.666 Z M87.739,135.63 L90.211,141.337 L85.267,141.337 L87.739,135.63 L87.739,135.63 Z M87.739,131.554 L80.713,147.666 L82.708,147.666 L84.725,142.916 L90.775,142.916 L92.792,147.666 L94.787,147.666 L87.739,131.554 L87.739,131.554 Z M70.15,148.273 L74.942,137.126 L76.915,147.666 L78.715,147.666 L75.571,131.554 L70.15,144.371 L64.728,131.554 L61.584,147.666 L63.384,147.666 L65.335,137.126 L70.15,148.273 L70.15,148.273 Z M41.542,141.963 L45.751,141.963 C45.534,143.634 43.994,144.85 41.802,144.85 C39.307,144.85 37.724,143.07 37.724,140.099 C37.724,137.106 39.329,135.369 41.802,135.369 C43.169,135.369 44.254,135.955 45.122,137.149 L48.786,135.391 C47.182,133.029 44.818,131.815 41.802,131.815 C37.03,131.815 33.519,135.218 33.519,139.925 C33.519,142.114 34.364,144.241 35.838,145.738 C37.398,147.32 39.329,148.035 41.802,148.035 C46.835,148.035 49.869,145.001 49.869,139.643 C49.869,139.34 49.869,139.036 49.848,138.711 L41.542,138.711 L41.542,141.963 L41.542,141.963 Z M30.046,132.769 C28.701,132.119 27.422,131.792 26.033,131.792 C21.458,131.792 18.163,135.238 18.163,139.925 C18.163,144.611 21.458,148.057 26.033,148.057 C27.422,148.057 28.701,147.732 30.046,147.081 L30.046,142.464 C28.918,143.722 27.834,144.329 26.467,144.329 C23.995,144.329 22.39,142.398 22.39,140.011 C22.39,137.386 24.016,135.521 26.467,135.521 C27.834,135.521 28.918,136.128 30.046,137.386 L30.046,132.769 L30.046,132.769 Z M5.92,141.879 L7.481,136.759 C7.547,136.52 7.742,135.825 8.024,134.675 C8.305,135.825 8.479,136.52 8.544,136.759 L10.127,141.879 L5.92,141.879 L5.92,141.879 Z M0,147.666 L4.207,147.666 L5.009,144.891 L11.016,144.891 L11.797,147.666 L16.004,147.666 L10.648,132.161 L5.356,132.161 L0,147.666 L0,147.666 Z" id="Shape" fill="#FFFFFF" sketch:type="MSShapeGroup"></path>
    </g>
</svg>