<?xml version="1.0" encoding="utf-8"?>
<!-- Generator: Adobe Illustrator 16.0.4, SVG Export Plug-In . SVG Version: 6.00 Build 0)  -->
<svg version="1.2" baseProfile="tiny" id="Layer_1" xmlns="http://www.w3.org/2000/svg" xmlns:xlink="http://www.w3.org/1999/xlink"
	 x="0px" y="0px" width="178.99px" height="148.057px" viewBox="0 0 178.99 148.057" xml:space="preserve">
<polygon fill="#225A40" points="88.372,0 76.553,23.967 100.176,23.967 "/>
<polygon fill="#225A40" points="73.045,31.139 51.081,75.582 60.015,91.961 109.019,91.961 101.345,76.178 68.015,76.178 
	82.517,46.577 111.293,46.569 103.705,31.139 "/>
<polygon fill="#225A40" points="87.125,53.449 79.164,69.471 105.561,69.464 124.784,108.329 141.81,108.329 114.723,53.449 "/>
<polygon fill="#225A40" points="35,108.329 52.09,108.329 57.039,98.123 48.088,81.717 "/>
<g>
	<path fill="#225A40" d="M144.932,104.852c0.076-0.01,0.173-0.018,0.314-0.018c0.495,0,0.666,0.237,0.666,0.481
		c0,0.338-0.309,0.467-0.67,0.467h-0.311V104.852z M144.932,106.116h0.301c0.352,0,0.526,0.135,0.589,0.476
		c0.06,0.363,0.125,0.611,0.191,0.701h0.456c-0.048-0.087-0.11-0.25-0.17-0.676c-0.06-0.403-0.219-0.621-0.459-0.665v-0.021
		c0.291-0.084,0.531-0.309,0.531-0.66c0-0.261-0.088-0.448-0.247-0.568c-0.171-0.126-0.441-0.211-0.856-0.211
		c-0.328,0-0.54,0.036-0.771,0.068v2.733h0.435V106.116z M145.398,103.797c1.09,0,1.954,0.927,1.954,2.076
		c0,1.155-0.864,2.09-1.947,2.079c-1.096,0-1.968-0.924-1.968-2.084c0-1.145,0.872-2.071,1.95-2.071H145.398z M145.392,103.42
		c-1.34,0-2.427,1.078-2.427,2.445c0,1.386,1.087,2.464,2.427,2.464c1.347,0,2.411-1.078,2.411-2.464
		c0-1.367-1.064-2.445-2.401-2.445H145.392z"/>
</g>
<g>
	<path fill="#225A40" d="M175.934,139.058l-2.214-0.977c-1.41-0.607-2.083-1.389-2.083-2.494c0-1.324,0.978-2.256,2.366-2.256
		c1.106,0,1.952,0.606,2.625,1.778l1.517-0.978c-0.758-1.539-2.146-2.34-4.012-2.34c-2.582,0-4.357,1.646-4.357,3.815
		c0,1.888,0.996,3.233,3.056,4.101l1.888,0.803c1.605,0.693,2.408,1.714,2.408,3.102c0,1.692-1.237,2.886-3.103,2.886
		c-1.562,0-2.625-0.977-3.08-2.863l-1.668,0.823c0.585,2.3,2.296,3.599,4.748,3.599c2.994,0,4.966-1.906,4.966-4.747
		C178.99,141.356,177.972,139.925,175.934,139.058 M158.67,147.666h7.697v-1.754h-5.856v-13.751h-1.841V147.666z M148.28,135.63
		l2.472,5.707h-4.944L148.28,135.63z M148.28,131.554l-7.026,16.112h1.995l2.016-4.75h6.051l2.017,4.75h1.995L148.28,131.554z
		 M136.049,147.666h1.841v-15.505h-1.841V147.666z M122.689,147.666h1.797v-7.396h0.26l5.663,7.396h2.341l-5.92-7.396h0.325
		c2.733,0,4.185-1.342,4.185-3.881c0-1.52-0.562-2.756-1.451-3.448c-0.954-0.737-2.083-0.78-3.558-0.78h-0.479h-3.163V147.666z
		 M124.486,133.72h1.411c2.451,0,3.624,0.435,3.624,2.691c0,2.148-1.194,2.495-3.624,2.495h-1.411V133.72z M109.654,147.666h8.174
		v-1.711h-6.334v-5.944h6.334V138.3h-6.334v-4.449h6.334v-1.689h-8.174V147.666z M99.633,147.666h1.863v-13.751h4.359v-1.754H95.252
		v1.754h4.381V147.666z M87.739,135.63l2.472,5.707h-4.944L87.739,135.63z M87.739,131.554l-7.026,16.112h1.995l2.017-4.75h6.05
		l2.017,4.75h1.995L87.739,131.554z M70.15,148.273l4.792-11.147l1.973,10.54h1.8l-3.144-16.112l-5.421,12.817l-5.422-12.817
		l-3.144,16.112h1.8l1.951-10.54L70.15,148.273z M41.542,141.963h4.209c-0.217,1.671-1.757,2.887-3.949,2.887
		c-2.495,0-4.078-1.78-4.078-4.751c0-2.993,1.605-4.73,4.078-4.73c1.367,0,2.452,0.586,3.32,1.78l3.664-1.758
		c-1.604-2.362-3.968-3.576-6.984-3.576c-4.772,0-8.283,3.403-8.283,8.11c0,2.189,0.845,4.316,2.319,5.813
		c1.56,1.582,3.491,2.297,5.964,2.297c5.033,0,8.067-3.034,8.067-8.392c0-0.303,0-0.607-0.021-0.932h-8.306V141.963z
		 M30.046,132.769c-1.345-0.65-2.624-0.977-4.013-0.977c-4.575,0-7.87,3.446-7.87,8.133c0,4.686,3.295,8.132,7.87,8.132
		c1.389,0,2.668-0.325,4.013-0.976v-4.617c-1.128,1.258-2.212,1.865-3.579,1.865c-2.472,0-4.077-1.931-4.077-4.318
		c0-2.625,1.626-4.49,4.077-4.49c1.367,0,2.451,0.607,3.579,1.865V132.769z M5.92,141.879l1.561-5.12
		c0.066-0.239,0.261-0.934,0.543-2.084c0.281,1.15,0.455,1.845,0.52,2.084l1.583,5.12H5.92z M0,147.666h4.207l0.802-2.775h6.007
		l0.781,2.775h4.207l-5.356-15.505H5.356L0,147.666z"/>
</g>
</svg>
