<?xml version="1.0" encoding="UTF-8" standalone="no"?>
<svg width="14px" height="21px" viewBox="0 0 14 21" version="1.1" xmlns="http://www.w3.org/2000/svg" xmlns:xlink="http://www.w3.org/1999/xlink" xmlns:sketch="http://www.bohemiancoding.com/sketch/ns">
    <!-- Generator: Sketch 3.3.2 (12043) - http://www.bohemiancoding.com/sketch -->
    <title>Shape</title>
    <desc>Created with Sketch.</desc>
    <defs></defs>
    <g id="styles" stroke="none" stroke-width="1" fill="none" fill-rule="evenodd" sketch:type="MSPage">
        <g id="Styles" sketch:type="MSArtboardGroup" transform="translate(-66.000000, -2355.000000)" fill="#8B8B8B">
            <g id="Audio-+-Shape" sketch:type="MSLayerGroup" transform="translate(66.000000, 2355.468500)">
                <path d="M7,14 C9.206,14 11,12.205 11,10 L11,4 C11,1.794 9.206,0 7,0 C4.794,0 3,1.794 3,4 L3,10 C3,12.205 4.794,14 7,14 L7,14 Z M14,10 L14,8 C14,7.448 13.553,7 13,7 C12.447,7 12,7.448 12,8 L12,10 C12,12.757 9.757,15 7,15 C4.243,15 2,12.757 2,10 L2,8 C2,7.448 1.553,7 1,7 C0.447,7 0,7.448 0,8 L0,10 C0,13.52 2.613,16.432 6,16.92 L6,18 L3,18 C2.447,18 2,18.447 2,19 C2,19.553 2.447,20 3,20 L11,20 C11.553,20 12,19.553 12,19 C12,18.447 11.553,18 11,18 L8,18 L8,16.92 C11.387,16.432 14,13.52 14,10 L14,10 Z" id="Shape" sketch:type="MSShapeGroup"></path>
            </g>
        </g>
    </g>
</svg>