<?xml version="1.0" encoding="utf-8"?>
<!-- Generator: Adobe Illustrator 16.0.4, SVG Export Plug-In . SVG Version: 6.00 Build 0)  -->
<svg version="1.2" baseProfile="tiny" id="Layer_1" xmlns="http://www.w3.org/2000/svg" xmlns:xlink="http://www.w3.org/1999/xlink"
	 x="0px" y="0px" width="190.003px" height="17.75px" viewBox="69.489 36.239 190.003 17.75" xml:space="preserve">
<g>
	<path fill="#FFFFFF" d="M256.249,44.205l-2.351-1.035c-1.496-0.646-2.211-1.476-2.211-2.649c0-1.403,1.037-2.395,2.513-2.395
		c1.174,0,2.071,0.645,2.786,1.889l1.607-1.035c-0.803-1.635-2.275-2.484-4.258-2.484c-2.742,0-4.627,1.747-4.627,4.049
		c0,2.004,1.059,3.432,3.244,4.354l2.004,0.853c1.705,0.735,2.559,1.817,2.559,3.293c0,1.797-1.312,3.062-3.295,3.062
		c-1.658,0-2.785-1.037-3.27-3.039l-1.771,0.875c0.621,2.439,2.438,3.818,5.041,3.818c3.18,0,5.271-2.023,5.271-5.04
		C259.493,46.646,258.413,45.127,256.249,44.205 M237.922,53.345h8.17v-1.861h-6.215V36.886h-1.955V53.345L237.922,53.345z
		 M226.895,40.567l2.623,6.057h-5.248L226.895,40.567z M226.895,36.241l-7.459,17.104h2.117l2.141-5.042h6.425l2.141,5.042h2.117
		L226.895,36.241z M213.911,53.345h1.953V36.886h-1.953V53.345z M199.729,53.345h1.906v-7.852h0.277l6.01,7.852h2.484l-6.283-7.852
		h0.346c2.902,0,4.441-1.426,4.441-4.12c0-1.612-0.598-2.925-1.539-3.661c-1.014-0.781-2.211-0.827-3.779-0.827h-0.506h-3.357
		V53.345L199.729,53.345z M201.635,38.541h1.498c2.604,0,3.848,0.461,3.848,2.856c0,2.279-1.268,2.647-3.848,2.647h-1.498V38.541z
		 M185.891,53.345h8.678v-1.816h-6.725v-6.311h6.725v-1.816h-6.725v-4.721h6.725v-1.793h-8.678V53.345z M175.252,53.345h1.979
		V38.748h4.627v-1.862h-11.254v1.862h4.647L175.252,53.345L175.252,53.345z M162.627,40.567l2.623,6.057h-5.248L162.627,40.567z
		 M162.627,36.241l-7.459,17.104h2.119l2.141-5.042h6.422l2.144,5.042h2.116L162.627,36.241z M143.956,53.989l5.088-11.834
		l2.095,11.188h1.909l-3.338-17.104l-5.754,13.605L138.2,36.241l-3.339,17.104h1.912l2.07-11.188L143.956,53.989z M113.587,47.289
		h4.47c-0.231,1.774-1.867,3.065-4.193,3.065c-2.648,0-4.329-1.892-4.329-5.045c0-3.178,1.704-5.021,4.329-5.021
		c1.451,0,2.603,0.622,3.525,1.889l3.889-1.866c-1.703-2.508-4.213-3.795-7.413-3.795c-5.066,0-8.794,3.611-8.794,8.608
		c0,2.323,0.897,4.583,2.462,6.171c1.657,1.68,3.706,2.438,6.332,2.438c5.342,0,8.562-3.221,8.562-8.907
		c0-0.321,0-0.646-0.021-0.988h-8.817V47.289z M101.384,37.528c-1.428-0.689-2.786-1.034-4.26-1.034
		c-4.856,0-8.354,3.657-8.354,8.632s3.498,8.632,8.354,8.632c1.474,0,2.832-0.346,4.26-1.034v-4.901
		c-1.196,1.335-2.349,1.979-3.799,1.979c-2.625,0-4.329-2.049-4.329-4.583c0-2.787,1.727-4.767,4.329-4.767
		c1.45,0,2.603,0.646,3.799,1.979V37.528z M75.773,47.2l1.658-5.436c0.069-0.255,0.276-0.992,0.575-2.211
		c0.3,1.221,0.484,1.957,0.553,2.211l1.68,5.436H75.773z M69.489,53.345h4.466l0.852-2.947h6.376l0.828,2.947h4.467l-5.687-16.459
		h-5.617L69.489,53.345z"/>
</g>
</svg>
