<?xml version="1.0" encoding="UTF-8" standalone="no"?>
<svg width="20px" height="17px" viewBox="0 0 20 17" version="1.1" xmlns="http://www.w3.org/2000/svg" xmlns:xlink="http://www.w3.org/1999/xlink" xmlns:sketch="http://www.bohemiancoding.com/sketch/ns">
    <!-- Generator: Sketch 3.3.2 (12043) - http://www.bohemiancoding.com/sketch -->
    <title>Shape Copy 12</title>
    <desc>Created with Sketch.</desc>
    <defs></defs>
    <g id="styles" stroke="none" stroke-width="1" fill="none" fill-rule="evenodd" sketch:type="MSPage">
        <g id="Styles" sketch:type="MSArtboardGroup" transform="translate(-622.000000, -2311.000000)" fill="#FA9D1B">
            <path d="M622,2316.4 C622,2317.7 622.2,2319.7 624,2321.5 C625.6,2323.1 630.9,2326.7 631.1,2326.9 C631.3,2327 631.5,2327.1 631.7,2327.1 C631.9,2327.1 632.1,2327 632.3,2326.9 C632.5,2326.7 637.8,2323.2 639.4,2321.5 C641.2,2319.7 641.4,2317.7 641.4,2316.4 C641.4,2313.4 639,2311 636,2311 C634.4,2311 632.8,2311.9 631.8,2313.3 C630.8,2311.9 629.2,2311 627.4,2311 C624.5,2311 622,2313.4 622,2316.4 L622,2316.4 Z" id="Shape-Copy-12" sketch:type="MSShapeGroup"></path>
        </g>
    </g>
</svg>