<?xml version="1.0" encoding="UTF-8" standalone="no"?>
<svg width="20px" height="18px" viewBox="0 0 20 18" version="1.1" xmlns="http://www.w3.org/2000/svg" xmlns:xlink="http://www.w3.org/1999/xlink" xmlns:sketch="http://www.bohemiancoding.com/sketch/ns">
    <!-- Generator: Sketch 3.3.2 (12043) - http://www.bohemiancoding.com/sketch -->
    <title>Imported Layers</title>
    <desc>Created with Sketch.</desc>
    <defs></defs>
    <g id="styles" stroke="none" stroke-width="1" fill="none" fill-rule="evenodd" sketch:type="MSPage">
        <g id="Styles" sketch:type="MSArtboardGroup" transform="translate(-622.000000, -2271.000000)" fill="#FA9D1B">
            <path d="M622.357,2279.232 C622.154,2279.416 622,2279.684 622,2280 C622,2280.553 622.447,2281 623,2281 L625,2281 L625,2288 C625,2288.553 625.447,2289 626,2289 L629,2289 C629.553,2289 630,2288.552 630,2288 L630,2284 L634,2284 L634,2288 C634,2288.552 634.447,2289 635,2289 L638,2289 C638.553,2289 639,2288.553 639,2288 L639,2281 L641,2281 C641.553,2281 642,2280.553 642,2280 C642,2279.684 641.846,2279.416 641.617,2279.232 C638.184,2276.34 632,2271 632,2271 C632,2271 625.814,2276.34 622.357,2279.232 Z" id="Imported-Layers" sketch:type="MSShapeGroup"></path>
        </g>
    </g>
</svg>