<?xml version="1.0" encoding="UTF-8" standalone="no"?>
<svg width="17px" height="22px" viewBox="0 0 17 22" version="1.1" xmlns="http://www.w3.org/2000/svg" xmlns:xlink="http://www.w3.org/1999/xlink" xmlns:sketch="http://www.bohemiancoding.com/sketch/ns">
    <!-- Generator: Sketch 3.3.2 (12043) - http://www.bohemiancoding.com/sketch -->
    <title>Shape</title>
    <desc>Created with Sketch.</desc>
    <defs></defs>
    <g id="styles" stroke="none" stroke-width="1" fill="none" fill-rule="evenodd" sketch:type="MSPage">
        <g id="Styles" sketch:type="MSArtboardGroup" transform="translate(-623.000000, -2351.000000)" fill="#FA9D1B">
            <path d="M640,2361.017 C640,2356.117 636.501,2351.917 631.68,2351.034 L631.5,2351 L631.32,2351.033 C626.499,2351.917 623,2356.117 623,2361.017 C623,2365.634 626.108,2369.627 630.5,2370.812 L630.5,2372.017 C630.5,2372.57 630.948,2373.017 631.5,2373.017 C632.052,2373.017 632.5,2372.57 632.5,2372.017 L632.5,2370.812 C636.892,2369.627 640,2365.634 640,2361.017 L640,2361.017 Z M632.5,2368.717 L632.5,2365.724 L636.854,2361.37 C637.049,2361.175 637.049,2360.858 636.854,2360.663 C636.659,2360.468 636.342,2360.468 636.147,2360.663 L632.5,2364.31 L632.5,2360.724 L634.854,2358.37 C635.049,2358.175 635.049,2357.858 634.854,2357.663 C634.659,2357.468 634.342,2357.468 634.147,2357.663 L632.5,2359.31 L632.5,2356.017 C632.5,2355.464 632.052,2355.017 631.5,2355.017 C630.948,2355.017 630.5,2355.464 630.5,2356.017 L630.5,2359.31 L628.854,2357.663 C628.659,2357.468 628.342,2357.468 628.147,2357.663 C627.952,2357.858 627.952,2358.175 628.147,2358.37 L630.501,2360.724 L630.501,2364.31 L626.855,2360.664 C626.66,2360.469 626.343,2360.469 626.148,2360.664 C625.953,2360.859 625.953,2361.176 626.148,2361.371 L630.502,2365.725 L630.502,2368.717 C627.253,2367.601 625,2364.538 625,2361.017 C625,2357.143 627.723,2353.816 631.5,2353.036 C635.277,2353.816 638,2357.143 638,2361.017 C638,2364.538 635.747,2367.601 632.5,2368.717 L632.5,2368.717 Z" id="Shape" sketch:type="MSShapeGroup"></path>
        </g>
    </g>
</svg>