<?xml version="1.0" encoding="UTF-8" standalone="no"?>
<svg width="285px" height="140px" viewBox="0 0 285 140" version="1.1" xmlns="http://www.w3.org/2000/svg" xmlns:xlink="http://www.w3.org/1999/xlink" xmlns:sketch="http://www.bohemiancoding.com/sketch/ns">
    <!-- Generator: Sketch 3.3.2 (12043) - http://www.bohemiancoding.com/sketch -->
    <title>logo</title>
    <desc>Created with Sketch.</desc>
    <defs></defs>
    <g id="HOME" stroke="none" stroke-width="1" fill="none" fill-rule="evenodd" sketch:type="MSPage">
        <g id="Home---DHD-Final" sketch:type="MSArtboardGroup" transform="translate(-271.000000, -159.000000)">
            <g id="logo" sketch:type="MSLayerGroup" transform="translate(270.000000, 159.000000)">
                <path d="M140,122 L143.237648,122 L148.5,130.039169 L153.763694,122 L157,122 L157,139 L153.962273,139 L153.962273,126.810052 L148.5,134.82285 L148.402052,134.82285 L142.989424,126.85752 L142.989424,139 L140,139 L140,122" id="Fill-1" fill="#1B94BC" sketch:type="MSShapeGroup"></path>
                <path d="M162,122 L165,122 L165,139 L162,139 L162,122 Z" id="Fill-2" fill="#1B94BC" sketch:type="MSShapeGroup"></path>
                <path d="M170,122 L172.802653,122 L182.023767,133.75351 L182.023767,122 L185,122 L185,139 L182.465729,139 L172.974898,126.906306 L172.974898,139 L170,139 L170,122" id="Fill-3" fill="#1B94BC" sketch:type="MSShapeGroup"></path>
                <path d="M190,122 L193,122 L193,139 L190,139 L190,122 Z" id="Fill-4" fill="#1B94BC" sketch:type="MSShapeGroup"></path>
                <path d="M197,137.199759 L198.775095,135.00083 C200.382188,136.450494 202.014025,137.274414 204.075636,137.274414 C205.898918,137.274414 207.05019,136.374482 207.05019,135.074127 L207.05019,135.025262 C207.05019,133.77513 206.378181,133.099163 203.260369,132.349898 C199.686736,131.449966 197.67201,130.350501 197.67201,127.125405 L197.67201,127.075183 C197.67201,124.075409 200.069625,122 203.403627,122 C205.850731,122 207.793829,122.775055 209.497295,124.200287 L207.913645,126.524093 C206.402925,125.349974 204.892206,124.725586 203.356742,124.725586 C201.629834,124.725586 200.621819,125.649951 200.621819,126.800995 L200.621819,126.851218 C200.621819,128.200437 201.3889,128.800392 204.626528,129.599879 C208.176718,130.499811 210,131.825956 210,134.723927 L210,134.775507 C210,138.050826 207.529453,140 204.004007,140 C201.437087,140 199.014727,139.075635 197,137.199759" id="Fill-5" fill="#1B94BC" sketch:type="MSShapeGroup"></path>
                <path d="M218.471803,124.768944 L213,124.768944 L213,122 L227,122 L227,124.768944 L221.528197,124.768944 L221.528197,139 L218.471803,139 L218.471803,124.768944" id="Fill-6" fill="#1B94BC" sketch:type="MSShapeGroup"></path>
                <path d="M231,122 L238.864769,122 C241.083493,122 242.82179,122.632902 243.956474,123.700923 C244.889953,124.622586 245.419655,125.885752 245.419655,127.366478 L245.419655,127.415264 C245.419655,130.209261 243.679989,131.883813 241.234054,132.564182 L246,139 L242.318095,139 L237.981933,133.07314 L234.100192,133.07314 L234.100192,139 L231,139 L231,122 L231,122 Z M238.638927,130.428139 C240.856283,130.428139 242.267451,129.310013 242.267451,127.585356 L242.267451,127.53657 C242.267451,125.71566 240.906926,124.721477 238.612921,124.721477 L234.100192,124.721477 L234.100192,130.428139 L238.638927,130.428139 L238.638927,130.428139 Z" id="Fill-7" fill="#1B94BC" sketch:type="MSShapeGroup"></path>
                <path d="M249,122 L252,122 L252,139 L249,139 L249,122 Z" id="Fill-8" fill="#1B94BC" sketch:type="MSShapeGroup"></path>
                <path d="M257,122 L269.874728,122 L269.874728,124.672691 L260.050979,124.672691 L260.050979,129.091135 L268.759403,129.091135 L268.759403,131.762507 L260.050979,131.762507 L260.050979,136.327309 L270,136.327309 L270,139 L257,139 L257,122" id="Fill-9" fill="#1B94BC" sketch:type="MSShapeGroup"></path>
                <path d="M273,137.199759 L274.77622,135.00083 C276.381849,136.450494 278.013523,137.274414 280.074927,137.274414 C281.898027,137.274414 283.049184,136.374482 283.049184,135.074127 L283.049184,135.025262 C283.049184,133.77513 282.378544,133.099163 279.259742,132.349898 C275.686467,131.449966 273.671942,130.350501 273.671942,127.125405 L273.671942,127.075183 C273.671942,124.075409 276.07062,122 279.402985,122 C281.849845,122 283.792748,122.775055 285.496043,124.200287 L283.912551,126.524093 C282.401983,125.349974 280.891415,124.725586 279.356105,124.725586 C277.62937,124.725586 276.622759,125.649951 276.622759,126.800995 L276.622759,126.851218 C276.622759,128.200437 277.389763,128.800392 280.627066,129.599879 C284.175599,130.499811 286,131.825956 286,134.723927 L286,134.775507 C286,138.050826 283.528398,140 280.003306,140 C277.437945,140 275.014525,139.075635 273,137.199759" id="Fill-10" fill="#1B94BC" sketch:type="MSShapeGroup"></path>
                <path d="M221.800448,44.6627845 C221.800448,44.133357 221.143524,44 220.747242,44 C218.767162,44 212.963892,46.5151138 212.70059,49.4236309 C212.173987,54.9806188 209.532994,69.927276 203.731054,83.2869844 C197.927783,96.7787162 192.915747,104.849484 190.012782,104.849484 C188.297334,104.849484 187.373119,102.203681 187.373119,96.2506223 C187.373119,83.0229374 189.221548,75.3482397 192.652446,56.1714972 C192.652446,56.1714972 192.652446,55.1126422 191.065988,55.1126422 C187.507429,55.9047831 185.264048,56.0381401 183.023326,56.0381401 C181.964801,56.0381401 181.439528,57.7571124 181.439528,57.7571124 C180.120361,63.4447902 178.141611,76.1443812 178.141611,87.6530939 C178.141611,87.9598151 178.153579,88.2451991 178.156239,88.5479196 C178.150919,88.5585882 178.14826,88.5692568 178.14294,88.5812589 C175.239976,96.2506223 172.073709,99.5565434 169.438035,99.5565434 C166.404749,99.5565434 164.162698,95.193101 164.162698,88.1811878 C164.162698,81.5666785 167.985888,68.2083037 171.678757,60.7989865 C171.678757,60.7989865 172.073709,60.0068457 172.073709,59.0800142 C172.073709,57.2290185 169.438035,53.7884068 167.722586,53.7884068 C166.668051,53.7884068 159.675935,61.1963905 155.057521,64.236931 C153.741014,65.0330725 152.816799,65.5611664 152.159875,65.5611664 C151.234331,65.5611664 150.972359,64.6356686 150.972359,62.3872688 C150.972359,59.8734886 151.631942,56.566234 151.631942,53.7884068 C151.631942,50.4824858 150.707728,47.7046586 146.750227,47.7046586 C142.658416,47.7046586 140.549345,52.598862 140.549345,58.0224929 C140.549345,62.5192923 142.001493,67.4134957 144.905787,70.1926565 C143.45364,81.7000356 137.64904,98.6310455 130.261972,108.287429 C130,108.552809 130,108.816856 130,109.082237 C130,110.139758 131.714119,110.405139 133.163607,110.405139 C134.220802,110.405139 135.142357,110.270448 135.142357,110.005068 C140.946957,101.408873 148.069394,83.1562945 149.1226,72.438389 C149.649203,72.5730797 150.444426,72.5730797 151.10534,72.5730797 C153.873994,72.5730797 156.77297,72.0449858 158.883371,70.9847973 C157.698514,75.3482397 155.585454,84.7419097 155.585454,93.2087482 C155.585454,101.67292 157.698514,109.212927 164.953932,109.212927 C171.646842,109.212927 176.104349,102.837127 178.630979,96.2559566 C179.799878,105.720306 183.008698,110.667852 187.373119,110.667852 C192.915747,110.667852 200.300156,102.467728 207.160621,85.2700036 C209.929276,78.262091 211.776376,71.6475818 213.228523,68.8684211 C213.228523,72.0449858 219.030463,93.4741287 219.030463,104.32139 C219.030463,109.476974 215.603555,111.992087 212.302978,111.992087 C209.006391,111.992087 205.840125,109.610331 205.840125,105.112198 C205.840125,104.185366 205.974435,103.129179 206.237737,102.070324 C205.579483,101.806277 205.183201,101.806277 204.655268,101.806277 C201.621982,101.806277 200.826759,105.509602 200.826759,108.287429 C200.826759,115.164651 207.160621,119 213.757785,119 C220.747242,119 228,114.504534 228,104.32139 C228,93.4741287 219.821698,73.1011735 219.821698,63.5768137 C219.821698,53.3923364 221.800448,44.7934744 221.800448,44.6627845" id="Fill-11" fill="#ED952D" sketch:type="MSShapeGroup"></path>
                <path d="M188.435841,48 C192.574694,48 196,42.5453349 196,38.2268937 C196,35.3883086 194.582491,33 190.801096,33 C186.071955,33 183,38.0004389 183,42.204336 C183,45.2733257 184.651707,48 188.435841,48" id="Fill-12" fill="#ED952D" sketch:type="MSShapeGroup"></path>
                <path d="M285.641379,55.1377153 C282.328736,27.0858839 256.962787,7.03992488 228.975933,10.3594005 C214.442791,12.0843565 202.079131,19.7814404 194,30.7021691 C201.484316,22.6829869 211.719652,17.1620628 223.449993,15.7698529 C249.838281,12.6380461 273.757024,31.5406894 276.878476,57.9926773 C278.709392,73.485338 272.975001,88.1048728 262.626809,98.2070459 C257.958571,102.230612 253.666076,103.017224 251.221758,103.06514 C250.091874,103.047837 249.315162,102.933372 248.781422,102.80826 C245.150128,101.788725 242.091078,97.3685256 241.407306,87.8772744 C255.235433,79.9565851 261.292458,68.8654904 261.292458,60.6825971 C261.292458,54.6093144 258.001058,50.2530018 252.074149,50.2530018 C239.298898,50.2530018 231.002022,67.8100197 231.002022,83.7858278 C231.002022,96.986533 236.667372,109 250.231284,109 C251.150061,109 252.046267,108.914817 252.917247,108.757761 C252.917247,108.757761 252.917247,108.759092 252.919902,108.759092 C252.919902,108.759092 253.245192,108.705852 253.82673,108.552789 C254.445444,108.401057 255.048225,108.210726 255.635074,107.98579 C258.913197,106.817185 264.769737,103.980857 271.015297,97.3432369 C271.015297,97.3432369 271.004675,97.3472298 271.003348,97.3485608 C281.688779,86.6527686 287.554613,71.3371288 285.641379,55.1377153 L285.641379,55.1377153 Z M251.677163,57.9088252 C253.125697,57.9088252 253.651472,59.2291619 253.651472,60.4164002 C253.651472,66.8876473 246.542898,78.7693468 241.273207,82.3337236 C241.53875,70.5824606 245.887008,57.9088252 251.677163,57.9088252 L251.677163,57.9088252 Z" id="Fill-13" fill="#ED952D" sketch:type="MSShapeGroup"></path>
                <path d="M134.350271,131.431683 C134.350271,131.431683 133.462977,132.325096 132.575683,132.325096 C125.215659,132.325096 122.806151,114.239488 122.806151,92.3348742 C122.806151,88.5132012 122.806151,84.4368388 122.932338,80.2364655 C125.723064,80.1071206 128.516446,79.9804427 130.925954,79.9804427 C132.954244,79.9804427 136,80.6151658 136,80.6151658 C136,80.1071206 135.617454,75.5240466 123.187369,74.1212552 C124.328365,48.3949684 127.372793,20.6311672 129.022522,6.23922126 C129.529927,2.16552582 129.657442,1.78415859 129.657442,1.40145791 C129.657442,1.40145791 129.657442,0.509378611 128.516446,0.509378611 L123.56593,0 C123.56593,0 122.42759,0 122.046372,1.01875722 C114.431318,22.923371 108.091416,31.7121522 97.5607777,49.6697484 C92.8679489,57.6917948 86.0166579,67.1152991 77.8968554,76.5428038 L77.5873651,76.8881678 C63.1568833,78.1696151 39.5878049,79.3230509 37.6352268,73.4531958 L37.6246005,73.4638635 C37.6246005,73.4638635 37.4187165,73.4505289 37.4798175,73.9559072 C37.6750754,76.6414792 40.7593517,84.4501733 69.7677548,85.6209441 L68.8897588,86.6023647 C22.8341537,136.501467 4.15183359,127.858032 1.16452196,125.899191 C1.16452196,125.899191 0.797915469,125.835185 1.15920883,126.415237 C3.20343852,129.906214 13.1469756,142.309983 44.155775,124.067028 C59.3261111,114.582185 71.9913029,100.072895 82.4648254,84.820873 C91.724296,83.546093 101.238797,82.271313 110.247222,81.3792337 C109.359928,88.8945684 108.851195,96.0285359 108.851195,102.653125 C108.851195,121.373455 113.292978,135 128.642633,135 C132.446839,135 134.605301,133.982576 134.605301,131.815717 C134.605301,131.431683 134.350271,131.431683 134.350271,131.431683 L134.350271,131.431683 Z M111.134516,73.9932438 C105.979444,74.2465997 98.0748237,75 88.665257,75.7600676 L88.7104187,75.7120633 C88.7104187,75.7120633 88.6028276,75.7267313 88.4474184,75.746733 C102.136717,53.8514535 111.644577,32.2175304 117.985807,23.0527158 C116.844811,37.8233621 113.419165,56.2916704 111.134516,73.9932438 L111.134516,73.9932438 Z" id="Fill-14" fill="#ED952D" sketch:type="MSShapeGroup"></path>
            </g>
        </g>
    </g>
</svg>