<?xml version="1.0" encoding="UTF-8" standalone="no"?>
<svg width="23px" height="17px" viewBox="0 0 23 17" version="1.1" xmlns="http://www.w3.org/2000/svg" xmlns:xlink="http://www.w3.org/1999/xlink" xmlns:sketch="http://www.bohemiancoding.com/sketch/ns">
    <!-- Generator: Sketch 3.3.2 (12043) - http://www.bohemiancoding.com/sketch -->
    <title>Shape</title>
    <desc>Created with Sketch.</desc>
    <defs></defs>
    <g id="styles" stroke="none" stroke-width="1" fill="none" fill-rule="evenodd" sketch:type="MSPage">
        <g id="Styles" sketch:type="MSArtboardGroup" transform="translate(-620.000000, -2503.000000)" fill="#FA9D1B">
            <path d="M631.5,2513 C632.881,2513 634.131,2512.44 635.036,2511.535 C635.94,2510.631 636.5,2509.381 636.5,2508 C636.5,2506.619 635.94,2505.369 635.036,2504.465 C634.131,2503.56 632.881,2503 631.5,2503 C630.119,2503 628.869,2503.56 627.964,2504.465 C627.06,2505.369 626.5,2506.619 626.5,2508 C626.5,2509.381 627.06,2510.631 627.964,2511.535 C628.869,2512.44 630.119,2513 631.5,2513 L631.5,2513 Z M639.5,2514 C640.19,2514 640.815,2513.721 641.268,2513.269 C641.721,2512.817 642,2512.192 642,2511.5 C642,2510.81 641.721,2510.185 641.268,2509.732 C640.815,2509.279 640.19,2509 639.5,2509 C638.809,2509 638.184,2509.279 637.731,2509.732 C637.279,2510.185 637,2510.81 637,2511.5 C637,2512.191 637.279,2512.816 637.731,2513.269 C638.183,2513.722 638.809,2514 639.5,2514 L639.5,2514 Z M639.5,2514.59 C638.169,2514.59 637.168,2514.996 636.583,2515.558 C635.468,2514.641 633.705,2514 631.5,2514 C629.234,2514 627.505,2514.648 626.408,2515.564 C625.812,2514.999 624.8,2514.59 623.5,2514.59 C621.312,2514.59 620,2515.68 620,2516.772 C620,2517.317 621.312,2517.864 623.5,2517.864 C624.104,2517.864 624.646,2517.813 625.123,2517.731 L625.083,2518.001 C625.083,2519.001 627.489,2520.001 631.5,2520.001 C635.262,2520.001 637.917,2519.001 637.917,2518.001 L637.897,2517.746 C638.36,2517.819 638.892,2517.864 639.5,2517.864 C641.551,2517.864 643,2517.317 643,2516.772 C643,2515.68 641.627,2514.59 639.5,2514.59 L639.5,2514.59 Z M623.5,2514 C624.19,2514 624.815,2513.721 625.268,2513.268 C625.721,2512.815 626,2512.19 626,2511.5 C626,2510.811 625.721,2510.186 625.268,2509.732 C624.815,2509.28 624.19,2509 623.5,2509 C622.809,2509 622.184,2509.28 621.731,2509.732 C621.279,2510.186 621,2510.811 621,2511.5 C621,2512.19 621.279,2512.815 621.731,2513.268 C622.184,2513.721 622.809,2514 623.5,2514 L623.5,2514 Z" id="Shape" sketch:type="MSShapeGroup"></path>
        </g>
    </g>
</svg>