<?xml version="1.0" encoding="UTF-8" standalone="no"?>
<svg width="18px" height="18px" viewBox="0 0 18 18" version="1.1" xmlns="http://www.w3.org/2000/svg" xmlns:xlink="http://www.w3.org/1999/xlink" xmlns:sketch="http://www.bohemiancoding.com/sketch/ns">
    <!-- Generator: Sketch 3.3.2 (12043) - http://www.bohemiancoding.com/sketch -->
    <title>Shape</title>
    <desc>Created with Sketch.</desc>
    <defs></defs>
    <g id="styles" stroke="none" stroke-width="1" fill="none" fill-rule="evenodd" sketch:type="MSPage">
        <g id="Styles" sketch:type="MSArtboardGroup" transform="translate(-623.000000, -2602.000000)" fill="#FA9D1B">
            <path d="M640.908,2607.5 L638.154,2604.893 C637.586,2604.352 636.707,2604 635.917,2604 L633,2604 L633,2603.5 C633,2602.672 632.328,2602 631.5,2602 C630.672,2602 630,2602.672 630,2603.5 L630,2604 L626.5,2604 C624.57,2604 623,2605.57 623,2607.5 C623,2608.896 623.828,2610.096 625.016,2610.657 L623.172,2612.5 L625.733,2615.061 C626.303,2615.631 627.193,2616 628.001,2616 L630.201,2616 L631.001,2620 L632.001,2620 L632.801,2616 L635.501,2616 C637.432,2616 639.001,2614.43 639.001,2612.5 C639.001,2611.598 638.648,2610.782 638.086,2610.161 L638.158,2610.105 L640.908,2607.5 L640.908,2607.5 Z M635.5,2614 L628,2614 C627.725,2614 627.342,2613.842 627.146,2613.646 L626,2612.5 L627.146,2611.354 C627.341,2611.159 627.723,2611 628,2611 L635.5,2611 C636.328,2611 637,2611.672 637,2612.5 C637,2613.328 636.328,2614 635.5,2614 L635.5,2614 Z M636.779,2608.656 C636.58,2608.846 636.193,2609 635.917,2609 L626.5,2609 C625.672,2609 625,2608.328 625,2607.5 C625,2606.672 625.672,2606 626.5,2606 L635.917,2606 C636.193,2606 636.58,2606.154 636.779,2606.344 L638,2607.5 L636.779,2608.656 L636.779,2608.656 Z" id="Shape" sketch:type="MSShapeGroup"></path>
        </g>
    </g>
</svg>