<?xml version="1.0" encoding="UTF-8" standalone="no"?>
<svg width="21px" height="15px" viewBox="0 0 21 15" version="1.1" xmlns="http://www.w3.org/2000/svg" xmlns:xlink="http://www.w3.org/1999/xlink" xmlns:sketch="http://www.bohemiancoding.com/sketch/ns">
    <!-- Generator: Sketch 3.3.2 (12043) - http://www.bohemiancoding.com/sketch -->
    <title>Shape</title>
    <desc>Created with Sketch.</desc>
    <defs></defs>
    <g id="styles" stroke="none" stroke-width="1" fill="none" fill-rule="evenodd" sketch:type="MSPage">
        <g id="Styles" sketch:type="MSArtboardGroup" transform="translate(-62.000000, -2408.000000)" fill="#8B8B8B">
            <g id="Video-+-Shape" sketch:type="MSLayerGroup" transform="translate(62.000000, 2406.468500)">
                <path d="M20.525,4.149 C20.365,4.05 20.183,4 20,4 C19.847,4 19.694,4.035 19.553,4.105 L17,5.382 L17,5 C17,3.346 15.654,2 14,2 L3,2 C1.346,2 0,3.346 0,5 L0,13 C0,14.654 1.346,16 3,16 L14,16 C15.654,16 17,14.654 17,13 L17,12.618 L19.553,13.894 C19.694,13.965 19.847,14 20,14 C20.183,14 20.365,13.95 20.525,13.851 C20.82,13.668 21,13.347 21,13 L21,5 C21,4.653 20.82,4.332 20.525,4.149 L20.525,4.149 Z M5,10.5 C4.171,10.5 3.5,9.829 3.5,9 C3.5,8.171 4.171,7.5 5,7.5 C5.829,7.5 6.5,8.171 6.5,9 C6.5,9.829 5.829,10.5 5,10.5 L5,10.5 Z" id="Shape" sketch:type="MSShapeGroup"></path>
            </g>
        </g>
    </g>
</svg>