<?xml version="1.0" standalone="no"?>
<!DOCTYPE svg PUBLIC "-//W3C//DTD SVG 1.1//EN" "http://www.w3.org/Graphics/SVG/1.1/DTD/svg11.dtd" >
<svg xmlns="http://www.w3.org/2000/svg">
<metadata>Generated by IcoMoon</metadata>
<defs>
<font id="izicons" horiz-adv-x="1024">
<font-face units-per-em="1024" ascent="960" descent="-64" />
<missing-glyph horiz-adv-x="1024" />
<glyph unicode="&#x20;" d="" horiz-adv-x="512" />
<glyph unicode="&#x49;" d="M749.615 666.288v-61.445c0-9.852-7.988-17.838-17.842-17.838h-60.124c-9.854 0-17.84 7.988-17.84 17.838v61.445c0 9.852 7.986 17.84 17.84 17.84h60.124c9.854 0 17.842-7.988 17.842-17.84zM519.282 363.505c45.249 0 81.924 36.678 81.924 81.924 0 45.249-36.676 81.924-81.924 81.924s-81.926-36.676-81.926-81.924c0-45.244 36.678-81.924 81.926-81.924zM1012.016 448c0-276.151-223.863-500.016-500.016-500.016s-500.016 223.863-500.016 500.016 223.863 500.016 500.016 500.016 500.016-223.863 500.016-500.016zM800.448 528.753h-164.265c16.738-23.518 26.62-52.257 26.62-83.323 0-79.463-64.422-143.886-143.886-143.886-79.466 0-143.888 64.422-143.888 143.886 0 31.063 9.877 59.805 26.618 83.323h-163.53v-252.167c0-61.424 49.797-111.217 111.219-111.217h339.894c61.424 0 111.217 49.795 111.217 111.217v252.167zM518.917 334.579c61.123 0 110.848 49.728 110.848 110.85 0 33.185-14.677 62.988-37.855 83.323-8.134 7.132-17.307 13.088-27.27 17.619-13.951 6.346-29.421 9.91-45.723 9.91-16.299 0-31.773-3.566-45.727-9.91-9.962-4.532-19.136-10.489-27.268-17.619-23.178-20.333-37.858-50.138-37.858-83.323 0-61.12 49.73-110.85 110.852-110.85zM800.448 619.415c0 61.426-49.795 111.217-111.217 111.217h-303.924v-140.213h-22.802v140.213h-13.17c-0.861 0-1.711-0.044-2.571-0.063v-140.15h-22.806v137.271c-5.522-1.29-10.886-2.983-16.059-5.063v-132.208h-22.804v119.761c-28.418-20.149-46.982-53.277-46.982-90.765v-73.043h178.292c26.095 26.499 62.375 42.945 102.508 42.945 40.127 0 76.407-16.447 102.508-42.945h179.023v73.043z" />
<glyph unicode="&#x59;" d="M588.773 372.903c-11.343 0-21.071-7.231-28.239-15.962v74.544h-32.064v-231.546h32.064v13.129c8.852-11.039 18.539-15.29 30.166-15.29 21.13 0 29.035 16.416 29.035 37.548v94.757c0 23.169-7.701 42.819-30.962 42.819zM587.054 239.972c0-5.442-0.921-9.367-2.752-11.773-3.498-4.583-11.078-4.375-16.245-1.76-2.427 1.223-4.932 3.228-7.52 6.007v106.441c2.158 2.345 4.337 4.082 6.549 5.206 5.558 2.811 12.733 2.268 16.573-2.805 2.265-2.986 3.393-7.361 3.393-13.122v-88.195zM480.089 575.853v83.425c0 9.815 4.519 17.102 13.889 17.102 10.224 0 14.603-7.068 14.603-17.102v-83.425c0-9.764-4.978-16.981-13.947-16.981-9.214 0.002-14.544 7.534-14.544 16.981zM465.731 370.74h31.759v-170.801h-31.759v18.858c-5.852-6.949-11.937-12.246-18.267-15.876-17.119-9.807-40.618-9.595-40.618 25.059v142.762h31.759v-130.929c0-6.875 1.668-11.509 8.46-11.509 6.19 0 14.797 7.939 18.668 12.793v129.648zM407.276 397.877h-36.998v-197.938h-35.764v197.938h-36.996v33.607h109.76v-33.607zM691.926 375.058c-28.65 0-48.235-20.583-48.235-50.238v-76.665c0-30.751 15.508-52.844 45.828-52.844 33.467 0 47.591 19.931 47.591 52.844v12.831h-32.683v-11.874c0-14.871-0.782-23.894-14.187-23.894-12.786 0-13.87 11.081-13.87 23.894v32.22h60.737v43.487c0.002 30.875-14.716 50.24-45.183 50.24zM704.428 307.847h-28.054v17.292c0 11.739 2.418 20.018 14.187 20.018 11.42 0 13.87-8.473 13.87-20.018v-17.292zM512 948.016c-276.151 0-500.016-223.863-500.016-500.016s223.863-500.016 500.016-500.016c276.149 0 500.016 223.863 500.016 500.016s-223.866 500.016-500.016 500.016zM570.876 708.943h33.344v-137.483c0-7.214 1.745-12.083 8.881-12.083 6.502 0 15.542 8.342 19.605 13.43v136.133h33.344v-179.348h-33.344v19.799c-14.448-17.138-28.452-22.389-38.54-22.389-17.874 0-23.292 14.319-23.292 32.035v149.906zM494.63 710.418c27.030 0 47.938-20.112 47.938-48.183v-87.91c0-30.125-21.122-48.058-47.938-48.058-32.341 0-48.859 16.452-48.859 48.058v87.91c0 28.775 19.489 48.183 48.859 48.183zM359.361 772.718l25.897-97.18 24.060 97.18h38.157l-43.703-144.514v-98.61h-37.557v98.61l-44.676 144.514h37.824zM787.409 219.157c0-42.227-34.235-76.459-76.459-76.459h-393.046c-42.227 0-76.459 34.231-76.459 76.459v193.159c0 42.229 34.231 76.461 76.459 76.461h393.046c42.224 0 76.459-34.231 76.459-76.461v-193.159z" />
<glyph unicode="&#x65;" d="M512 931.886c-267.244 0-483.886-216.642-483.886-483.886s216.642-483.886 483.886-483.886 483.886 216.642 483.886 483.886-216.642 483.886-483.886 483.886zM803.168 663.061l-288.806-221.501-288.347 221.501h577.154zM224.015 602.393l169.893-130.506-169.893-169.893v300.4zM224.722 232.941l208.637 208.637 80.978-62.201 80.847 62.003 208.442-208.437h-578.903zM804.681 301.643l-170.018 170.018 170.018 130.393v-300.411z" />
<glyph unicode="&#x66;" d="M513.012 948.016c-276.151 0-500.016-223.863-500.016-500.016s223.863-500.016 500.016-500.016 500.016 223.863 500.016 500.016-223.863 500.016-500.016 500.016zM660.997 653.852c0 0-50.011 0-69.878 0-24.666 0-29.806-10.105-29.806-35.628 0-21.238 0-61.662 0-61.662h99.685l-9.59-108.246h-90.095v-323.377h-129.13v322.004h-67.153v109.615h67.153c0 0 0 15.76 0 86.325 0 81.020 43.325 123.322 139.414 123.322 15.739 0 89.403 0 89.403 0v-112.355z" />
<glyph unicode="&#x67;" d="M554.159 264.356c0-49.146-39.911-87.539-122.531-87.539-64.626 0-111.295 40.909-111.295 90.051 0 48.157 54.764 89.705 119.387 88.993 71.701-0.002 114.437-44.657 114.437-91.506zM1013.027 445.573c0-276.151-223.863-500.016-500.016-500.016s-500.016 223.863-500.016 500.016 223.863 500.016 500.016 500.016 500.016-223.863 500.016-500.016zM609.826 270.069c0 45.367-16.941 75.009-68.196 113.413-51.985 37.911-64.686 59.329-15.069 97.692 27.959 21.617 47.552 50.433 47.552 86.013 0 38.761-15.851 73.927-45.654 91.003h42.244l35.962 37.746c0 0-135.572 0-160.934 0-100.465 0-149.726-60.218-149.726-126.454 0-67.694 46.438-121.008 137.12-121.008-14.059-28.382-8.413-54.598 14.59-73.345-154.877 0-188.018-67.958-188.018-120.309 0-67.829 77.971-108.156 171.469-108.156 127.842 0.002 178.658 67.753 178.658 123.407zM819.717 614.267h-74.247v74.244h-37.12v-74.244h-74.247v-37.122h74.247v-74.244h37.12v74.244h74.247v37.122zM509.45 564.766c-7.483 56.958-44.591 103.691-87.949 104.993-43.373 1.292-72.464-42.301-64.971-99.273 7.488-56.961 48.708-96.749 92.089-98.055 43.359-1.292 68.314 35.37 60.832 92.335z" />
<glyph unicode="&#x69;" d="M406.539 448.013c0 59.589 48.3 107.875 107.89 107.875 59.586 0 107.899-48.288 107.899-107.875 0-59.582-48.313-107.901-107.899-107.901-59.589 0-107.89 48.319-107.89 107.901zM687.037 448.013c0-95.35-77.279-172.627-172.61-172.627-95.329 0-172.61 77.277-172.61 172.627 0 14.917 2.11 29.35 5.667 43.164h-48.844v-237.369c0-11.903 9.663-21.556 21.597-21.556h388.381c11.935 0 21.601 9.653 21.601 21.556v237.369h-48.844c3.562-13.813 5.661-28.246 5.661-43.164zM708.621 663.783h-64.718c-11.92 0-21.575-9.663-21.575-21.578v-64.739c0-11.908 9.655-21.58 21.575-21.58h64.718c11.935 0 21.601 9.67 21.601 21.58v64.739c0 11.916-9.665 21.578-21.601 21.578zM1012.016 448c0-276.151-223.863-500.016-500.016-500.016s-500.016 223.863-500.016 500.016 223.863 500.016 500.016 500.016 500.016-223.863 500.016-500.016zM794.935 663.783c0 35.751-28.972 64.722-64.716 64.722h-431.579c-35.739 0-64.72-28.972-64.72-64.722v-431.533c0-35.769 28.981-64.758 64.72-64.758h431.581c35.747 0 64.716 28.989 64.716 64.758v431.533z" />
<glyph unicode="&#x6c;" d="M513.012 948.016c-276.151 0-500.016-223.863-500.016-500.016s223.863-500.016 500.016-500.016 500.016 223.863 500.016 500.016-223.863 500.016-500.016 500.016zM379.607 206.265h-109.783v354.678h109.783v-354.678zM324.193 607.391c-35.853 0-64.919 29.302-64.919 65.446s29.067 65.446 64.919 65.446c35.851 0 64.917-29.302 64.917-65.446s-29.067-65.446-64.917-65.446zM791.021 206.265h-109.25c0 0 0 135.116 0 186.178s-19.395 79.568-59.773 79.568c-43.941 0-66.9-29.689-66.9-79.568 0-54.624 0-186.178 0-186.178h-105.295v354.678h105.295v-47.766c0 0 31.669 58.587 106.877 58.587 75.211 0 129.045-45.919 129.045-140.922 0.002-95.004 0.002-224.577 0.002-224.577z" />
<glyph unicode="&#x70;" d="M513.011 947.494c-275.865 0-499.494-223.63-499.494-499.494s223.63-499.494 499.494-499.494 499.494 223.63 499.494 499.494-223.63 499.494-499.494 499.494zM578.537 283.583c-39.034 0-75.741 21.102-88.299 45.061 0 0-21.002-83.287-25.434-99.367-15.649-56.799-61.698-113.645-65.267-118.301-2.492-3.239-8.006-2.219-8.583 2.070-0.999 7.236-12.733 78.911 1.082 137.375 6.931 29.356 46.496 196.985 46.496 196.985s-11.533 23.084-11.533 57.204c0 53.573 31.058 93.569 69.718 93.569 32.873 0 48.756-24.682 48.756-54.271 0-33.057-21.049-82.48-31.917-128.275-9.073-38.361 19.235-69.638 57.054-69.638 68.479 0 114.609 87.977 114.609 192.208 0 79.219-53.337 138.537-150.411 138.537-109.634 0-177.986-81.781-177.986-173.14 0-31.488 9.305-53.716 23.861-70.892 6.684-7.904 7.621-11.081 5.199-20.151-1.762-6.658-5.713-22.667-7.387-29.012-2.399-9.166-9.818-12.431-18.095-9.046-50.487 20.618-74.028 75.93-74.028 138.108 0 102.685 86.604 225.828 258.355 225.828 138.037 0 228.863-99.862 228.863-207.097-0.002-141.81-78.848-247.755-195.059-247.755z" />
<glyph unicode="&#x74;" d="M512 948.016c-276.151 0-500.016-223.863-500.016-500.016s223.863-500.016 500.016-500.016 500.016 223.863 500.016 500.016-223.863 500.016-500.016 500.016zM763.461 534.154c7.333-163.109-114.314-344.972-329.627-344.972-65.489 0-126.45 19.202-177.767 52.103 61.524-7.25 122.931 9.815 171.69 48.026-50.747 0.937-93.581 34.462-108.334 80.539 18.171-3.476 36.047-2.459 52.368 1.981-55.769 11.207-94.273 61.452-93.014 115.181 15.632-8.689 33.52-13.906 52.531-14.508-51.647 34.518-66.271 102.717-35.887 154.832 57.194-70.162 142.65-116.333 239.031-121.169-16.915 72.541 38.113 142.4 112.97 142.4 33.355 0 63.498-14.083 84.649-36.623 26.418 5.202 51.234 14.852 73.645 28.142-8.658-27.082-27.050-49.81-50.992-64.159 23.46 2.799 45.812 9.034 66.607 18.26-15.547-23.259-35.207-43.686-57.869-60.034z" />
<glyph unicode="&#x76;" d="M512 960c-282.77 0-512-229.23-512-512s229.23-512 512-512 512 229.23 512 512-229.23 512-512 512zM812.868 521.874c-33.958-191.296-223.708-353.296-280.78-390.31-57.088-37.006-109.154 14.822-128.038 53.994-21.616 44.708-86.41 286.94-103.368 307.020-16.964 20.038-67.876-20.080-67.876-20.080l-24.692 32.376c0 0 103.382 123.448 182.040 138.878 83.404 16.366 83.28-128.066 103.34-208.242 19.4-77.564 32.44-121.952 49.376-121.952 16.97 0 49.382 43.262 84.852 109.57 35.536 66.376-1.538 125.010-70.972 83.292 27.786 166.652 290.062 206.72 256.118 15.454z" />
<glyph unicode="&#x79;" d="M512 948.016c-276.151 0-500.016-223.863-500.016-500.016s223.863-500.016 500.016-500.016 500.016 223.863 500.016 500.016-223.863 500.016-500.016 500.016zM806.014 337.863c-9.41-79.964-41.11-90.986-104.19-95.28-89.682-6.102-289.905-6.107-379.65 0-63.079 4.294-94.777 15.315-104.188 95.28-7.008 59.578-6.983 160.906 0 220.272 9.41 79.967 41.108 90.988 104.188 95.278 89.748 6.112 289.967 6.107 379.65 0 63.079-4.289 94.779-15.311 104.19-95.278 7.008-59.575 6.983-160.901 0-220.272zM452.399 531.383l160.102-83.478-160.102-83.471v166.949z" />
<glyph unicode="&#xe600;" d="M834.479 254.903q0 7.152-1.3 10.403-1.95 5.201-25.031 19.18t-57.538 32.183l-34.459 18.854q-3.25 1.95-12.353 8.452t-16.254 9.751-13.653 3.25q-11.703 0-30.557-21.13t-37.058-42.586-28.607-21.455q-4.551 0-10.729 2.275t-10.077 4.226-11.053 6.177-9.102 5.526q-64.365 35.759-110.852 82.245t-82.245 110.852q-1.3 1.95-5.526 9.102t-6.177 11.053-4.226 10.077-2.275 10.729q0 8.452 13.328 21.78t29.257 25.031 29.257 25.681 13.328 23.73q0 6.501-3.25 13.653t-9.751 16.254-8.452 12.353q-1.95 3.902-9.751 18.53t-16.254 29.582-17.23 30.883-16.254 26.332-10.729 11.703-10.403 1.3q-31.209 0-65.666-14.303-29.907-13.653-52.013-61.44t-22.106-84.845q0-10.403 1.626-22.106t3.25-19.83 5.852-21.455 6.501-19.18 8.127-21.455 7.152-19.505q39.010-106.626 140.759-208.377t208.377-140.759q3.902-1.3 19.505-7.152t21.455-8.127 19.18-6.501 21.455-5.852 19.83-3.25 22.106-1.626q37.058 0 84.845 22.106t61.44 52.013q14.303 34.459 14.303 65.666zM1000.919 760.077v-624.151q0-77.369-54.939-132.307t-132.307-54.939h-624.151q-77.369 0-132.307 54.939t-54.939 132.307v624.151q0 77.369 54.939 132.307t132.307 54.939h624.151q77.369 0 132.307-54.939t54.939-132.307z" />
<glyph unicode="&#xe601;" d="M704 320c-64-64-64-128-128-128s-128 64-192 128-128 128-128 192 64 64 128 128-128 256-192 256-192-192-192-192c0-128 131.5-387.5 256-512s384-256 512-256c0 0 192 128 192 192s-192 256-256 192z" />
<glyph unicode="&#xe602;" d="M928 832h-832c-52.8 0-96-43.2-96-96v-640c0-52.8 43.2-96 96-96h832c52.8 0 96 43.2 96 96v640c0 52.8-43.2 96-96 96zM398.74 409.628l-270.74-210.892v501.642l270.74-290.75zM176.38 704h671.24l-335.62-252-335.62 252zM409.288 398.302l102.712-110.302 102.71 110.302 210.554-270.302h-626.528l210.552 270.302zM625.26 409.628l270.74 290.75v-501.642l-270.74 210.892z" />
<glyph unicode="&#xe603;" d="M736 960h-448c-52.8 0-96-43.2-96-96v-832c0-52.8 43.2-96 96-96h448c52.8 0 96 43.2 96 96v832c0 52.8-43.2 96-96 96zM384 912h256v-32h-256v32zM512 0c-35.346 0-64 28.654-64 64s28.654 64 64 64 64-28.654 64-64-28.654-64-64-64zM768 192h-512v640h512v-640z" />
<glyph unicode="&#xe604;" d="M559.066 896c0 0-200.956 0-267.94 0-120.12 0-233.17-91.006-233.17-196.422 0-107.726 81.882-194.666 204.088-194.666 8.498 0 16.756 0.17 24.842 0.752-7.93-15.186-13.602-32.288-13.602-50.042 0-29.938 16.104-54.21 36.468-74.024-15.386 0-30.242-0.448-46.452-0.448-148.782 0.002-263.3-94.758-263.3-193.020 0-96.778 125.542-157.314 274.334-157.314 169.624 0 263.306 96.244 263.306 193.028 0 77.6-22.896 124.072-93.686 174.134-24.216 17.144-70.53 58.836-70.53 83.344 0 28.72 8.196 42.868 51.428 76.646 44.312 34.624 75.672 83.302 75.672 139.916 0 67.406-30.020 133.098-86.372 154.772h84.954l59.96 43.344zM465.48 240.542c2.126-8.972 3.284-18.206 3.284-27.628 0-78.2-50.392-139.31-194.974-139.31-102.842 0-177.116 65.104-177.116 143.3 0 76.642 92.126 140.444 194.964 139.332 24-0.254 46.368-4.116 66.67-10.69 55.826-38.826 95.876-60.762 107.172-105.004zM300.818 532.224c-69.038 2.064-134.636 77.226-146.552 167.86-11.916 90.666 34.37 160.042 103.388 157.99 69.010-2.074 134.638-74.814 146.558-165.458 11.906-90.66-34.39-162.458-103.394-160.392zM832 704v192h-64v-192h-192v-64h192v-192h64v192h192v64z" />
<glyph unicode="&#xe605;" d="M575.87-64h-191.87v512h-128v176.45l128 0.058-0.208 103.952c0 143.952 39.034 231.54 208.598 231.54h141.176v-176.484h-88.23c-66.032 0-69.206-24.656-69.206-70.684l-0.262-88.324h158.69l-18.704-176.45-139.854-0.058-0.13-512z" />
<glyph unicode="&#xe606;" d="M854 960h-684c-93.5 0-170-76.5-170-170v-684c0-93.5 76.5-170 170-170h684c93.5 0 170 76.5 170 170v684c0 93.5-76.5 170-170 170zM327.8 512h368.4c6.988-20.058 10.8-41.59 10.8-64 0-107.524-87.476-195-195-195s-195 87.476-195 195c0 22.41 3.812 43.942 10.8 64zM896 511.95v-383.95c0-35.2-28.8-64-64-64h-640c-35.2 0-64 28.8-64 64v384h100.108c-4.642-20.602-7.108-42.016-7.108-64 0-160.458 130.542-291 291-291s291 130.542 291 291c0 21.984-2.464 43.398-7.108 64l100.108-0.050zM896 736c0-17.6-14.4-32-32-32h-64c-17.6 0-32 14.4-32 32v64c0 17.6 14.4 32 32 32h64c17.6 0 32-14.4 32-32v-64z" />
<glyph unicode="&#xe607;" d="M1024 765.582c-37.676-16.708-78.164-28.002-120.66-33.080 43.372 26 76.686 67.17 92.372 116.23-40.596-24.078-85.556-41.56-133.41-50.98-38.32 40.83-92.922 66.34-153.346 66.34-116.022 0-210.088-94.058-210.088-210.078 0-16.466 1.858-32.5 5.44-47.878-174.6 8.764-329.402 92.4-433.018 219.506-18.084-31.028-28.446-67.116-28.446-105.618 0-72.888 37.088-137.192 93.46-174.866-34.438 1.092-66.832 10.542-95.154 26.278-0.020-0.876-0.020-1.756-0.020-2.642 0-101.788 72.418-186.696 168.522-206-17.626-4.8-36.188-7.372-55.348-7.372-13.538 0-26.698 1.32-39.528 3.772 26.736-83.46 104.32-144.206 196.252-145.896-71.9-56.35-162.486-89.934-260.916-89.934-16.958 0-33.68 0.994-50.116 2.94 92.972-59.61 203.402-94.394 322.042-94.394 386.422 0 597.736 320.124 597.736 597.744 0 9.108-0.206 18.168-0.61 27.18 41.056 29.62 76.672 66.62 104.836 108.748z" />
<glyph unicode="&#xe608;" d="M0 651.63l41.594-54.544c0 0 85.77 67.608 114.36 33.802 28.588-33.802 137.736-441.956 174.17-517.246 31.8-66.030 119.518-153.32 215.714-90.982 96.136 62.34 415.84 335.286 473.066 657.616 57.18 322.226-384.72 254.726-431.53-26.010 116.99 70.236 179.436-28.538 119.57-140.372-59.758-111.724-114.36-184.592-142.952-184.592-28.538 0-50.49 74.768-83.188 205.446-33.798 135.102-33.592 378.46-174.116 350.87-132.518-26.012-306.688-233.988-306.688-233.988z" />
<glyph unicode="&#xe609;" d="M852 960h-680c-94.6 0-172-77.4-172-172v-680c0-94.6 77.4-172 172-172h680c94.6 0 172 77.4 172 172v680c0 94.6-77.4 172-172 172zM384 128h-128v448h128v-448zM320 640c-35.346 0-64 28.654-64 64s28.654 64 64 64 64-28.654 64-64-28.654-64-64-64zM832 128h-128v256c0 35.346-28.654 64-64 64s-64-28.654-64-64v-256h-128v448h128v-79.472c26.398 36.264 66.752 79.472 112 79.472 79.53 0 144-71.634 144-160v-288z" />
<glyph unicode="&#xe60a;" d="M512.002-64c-282.32 0-512.002 229.682-512.002 512s229.682 512 512.002 512c282.322 0 511.998-229.682 511.998-512s-229.676-512-511.998-512zM943.798 377.914c-14.962 4.72-135.364 40.632-272.41 18.698 57.204-157.186 80.478-285.208 84.958-311.808 98.114 66.336 167.958 171.426 187.452 293.11zM682.832 44.762c-6.506 38.37-31.898 172.090-93.298 331.64-0.96-0.328-1.922-0.64-2.88-0.972-246.67-85.958-335.216-257.016-343.086-273.104 74.15-57.824 167.336-92.32 268.436-92.32 60.58 0 118.318 12.39 170.828 34.756zM187.098 154.922c9.908 16.96 129.93 215.684 355.476 288.594 5.704 1.84 11.448 3.57 17.236 5.2-10.98 24.844-22.94 49.714-35.456 74.216-218.398-65.36-430.324-62.63-449.46-62.236-0.132-4.442-0.222-8.89-0.222-13.366 0-112.32 42.58-214.874 112.426-292.408zM83.912 536.904c19.558-0.26 199.736-1.042 404.302 53.282-72.46 128.812-150.612 237.11-162.142 252.92-122.348-57.708-213.802-170.496-242.16-306.202zM409.518 872.5c12.088-16.184 91.518-124.348 163.18-256.014 155.508 58.284 221.34 146.77 229.208 157.974-77.23 68.518-178.782 110.2-289.902 110.2-35.29 0-69.6-4.232-102.486-12.16zM850.522 723.888c-9.216-12.474-82.504-106.418-244.202-172.434 10.178-20.832 19.934-42.018 29.016-63.344 3.216-7.56 6.354-15.084 9.418-22.57 145.518 18.298 290.104-11.028 304.526-14.078-0.968 103.224-37.85 198.010-98.758 272.426z" />
<glyph unicode="&#xe60b;" d="M512 870c-227.558 0-412-184.454-412-412 0-227.524 184.442-412 412-412 227.526 0 412 184.476 412 412 0 227.546-184.474 412-412 412zM761.552 361.842c-6.792-6.742-120.752 23.884-124.778 29.572-3.972 5.73 6.34 57.432-0.4 64.172-6.742 6.688-62.112 36.734-136.346 36.694-74.232 0.042-108.462-32.316-111.178-40.312-2.656-7.968 1.266-51.452-4.628-57.334-5.902-5.886-116.918-31.032-122.654-25.35-5.762 5.786 10.1 111.628 16.92 118.37 6.79 6.782 57.756 67.434 227.24 67.434 169.522 0 241.090-62.234 246.318-67.434 5.182-5.194 16.248-119.074 9.506-125.812z" />
<glyph unicode="&#xe60c;" d="M512 960c-176.732 0-320-143.268-320-320 0-320 320-704 320-704s320 384 320 704c0 176.732-143.27 320-320 320zM512 448c-106.040 0-192 85.96-192 192s85.96 192 192 192 192-85.96 192-192-85.96-192-192-192z" />
<glyph unicode="" d="M512 960c-176.732 0-320-143.268-320-320 0-320 320-704 320-704s320 384 320 704c0 176.732-143.27 320-320 320zM512 448c-106.040 0-192 85.96-192 192s85.96 192 192 192 192-85.96 192-192-85.96-192-192-192z" />
<glyph unicode="youtubecircle" d="M512 948.016c-276.151 0-500.016-223.863-500.016-500.016s223.863-500.016 500.016-500.016 500.016 223.863 500.016 500.016-223.863 500.016-500.016 500.016zM806.014 337.863c-9.41-79.964-41.11-90.986-104.19-95.28-89.682-6.102-289.905-6.107-379.65 0-63.079 4.294-94.777 15.315-104.188 95.28-7.008 59.578-6.983 160.906 0 220.272 9.41 79.967 41.108 90.988 104.188 95.278 89.748 6.112 289.967 6.107 379.65 0 63.079-4.289 94.779-15.311 104.19-95.278 7.008-59.575 6.983-160.901 0-220.272zM452.399 531.383l160.102-83.478-160.102-83.471v166.949z" />
<glyph unicode="youtubealtcircle" d="M588.773 372.903c-11.343 0-21.071-7.231-28.239-15.962v74.544h-32.064v-231.546h32.064v13.129c8.852-11.039 18.539-15.29 30.166-15.29 21.13 0 29.035 16.416 29.035 37.548v94.757c0 23.169-7.701 42.819-30.962 42.819zM587.054 239.972c0-5.442-0.921-9.367-2.752-11.773-3.498-4.583-11.078-4.375-16.245-1.76-2.427 1.223-4.932 3.228-7.52 6.007v106.441c2.158 2.345 4.337 4.082 6.549 5.206 5.558 2.811 12.733 2.268 16.573-2.805 2.265-2.986 3.393-7.361 3.393-13.122v-88.195zM480.089 575.853v83.425c0 9.815 4.519 17.102 13.889 17.102 10.224 0 14.603-7.068 14.603-17.102v-83.425c0-9.764-4.978-16.981-13.947-16.981-9.214 0.002-14.544 7.534-14.544 16.981zM465.731 370.74h31.759v-170.801h-31.759v18.858c-5.852-6.949-11.937-12.246-18.267-15.876-17.119-9.807-40.618-9.595-40.618 25.059v142.762h31.759v-130.929c0-6.875 1.668-11.509 8.46-11.509 6.19 0 14.797 7.939 18.668 12.793v129.648zM407.276 397.877h-36.998v-197.938h-35.764v197.938h-36.996v33.607h109.76v-33.607zM691.926 375.058c-28.65 0-48.235-20.583-48.235-50.238v-76.665c0-30.751 15.508-52.844 45.828-52.844 33.467 0 47.591 19.931 47.591 52.844v12.831h-32.683v-11.874c0-14.871-0.782-23.894-14.187-23.894-12.786 0-13.87 11.081-13.87 23.894v32.22h60.737v43.487c0.002 30.875-14.716 50.24-45.183 50.24zM704.428 307.847h-28.054v17.292c0 11.739 2.418 20.018 14.187 20.018 11.42 0 13.87-8.473 13.87-20.018v-17.292zM512 948.016c-276.151 0-500.016-223.863-500.016-500.016s223.863-500.016 500.016-500.016c276.149 0 500.016 223.863 500.016 500.016s-223.866 500.016-500.016 500.016zM570.876 708.943h33.344v-137.483c0-7.214 1.745-12.083 8.881-12.083 6.502 0 15.542 8.342 19.605 13.43v136.133h33.344v-179.348h-33.344v19.799c-14.448-17.138-28.452-22.389-38.54-22.389-17.874 0-23.292 14.319-23.292 32.035v149.906zM494.63 710.418c27.030 0 47.938-20.112 47.938-48.183v-87.91c0-30.125-21.122-48.058-47.938-48.058-32.341 0-48.859 16.452-48.859 48.058v87.91c0 28.775 19.489 48.183 48.859 48.183zM359.361 772.718l25.897-97.18 24.060 97.18h38.157l-43.703-144.514v-98.61h-37.557v98.61l-44.676 144.514h37.824zM787.409 219.157c0-42.227-34.235-76.459-76.459-76.459h-393.046c-42.227 0-76.459 34.231-76.459 76.459v193.159c0 42.229 34.231 76.461 76.459 76.461h393.046c42.224 0 76.459-34.231 76.459-76.461v-193.159z" />
<glyph unicode="vimeocircle" d="M512 960c-282.77 0-512-229.23-512-512s229.23-512 512-512 512 229.23 512 512-229.23 512-512 512zM812.868 521.874c-33.958-191.296-223.708-353.296-280.78-390.31-57.088-37.006-109.154 14.822-128.038 53.994-21.616 44.708-86.41 286.94-103.368 307.020-16.964 20.038-67.876-20.080-67.876-20.080l-24.692 32.376c0 0 103.382 123.448 182.040 138.878 83.404 16.366 83.28-128.066 103.34-208.242 19.4-77.564 32.44-121.952 49.376-121.952 16.97 0 49.382 43.262 84.852 109.57 35.536 66.376-1.538 125.010-70.972 83.292 27.786 166.652 290.062 206.72 256.118 15.454z" />
<glyph unicode="vimeo" d="M0 651.63l41.594-54.544c0 0 85.77 67.608 114.36 33.802 28.588-33.802 137.736-441.956 174.17-517.246 31.8-66.030 119.518-153.32 215.714-90.982 96.136 62.34 415.84 335.286 473.066 657.616 57.18 322.226-384.72 254.726-431.53-26.010 116.99 70.236 179.436-28.538 119.57-140.372-59.758-111.724-114.36-184.592-142.952-184.592-28.538 0-50.49 74.768-83.188 205.446-33.798 135.102-33.592 378.46-174.116 350.87-132.518-26.012-306.688-233.988-306.688-233.988z" />
<glyph unicode="twittercircle" d="M512 948.016c-276.151 0-500.016-223.863-500.016-500.016s223.863-500.016 500.016-500.016 500.016 223.863 500.016 500.016-223.863 500.016-500.016 500.016zM763.461 534.154c7.333-163.109-114.314-344.972-329.627-344.972-65.489 0-126.45 19.202-177.767 52.103 61.524-7.25 122.931 9.815 171.69 48.026-50.747 0.937-93.581 34.462-108.334 80.539 18.171-3.476 36.047-2.459 52.368 1.981-55.769 11.207-94.273 61.452-93.014 115.181 15.632-8.689 33.52-13.906 52.531-14.508-51.647 34.518-66.271 102.717-35.887 154.832 57.194-70.162 142.65-116.333 239.031-121.169-16.915 72.541 38.113 142.4 112.97 142.4 33.355 0 63.498-14.083 84.649-36.623 26.418 5.202 51.234 14.852 73.645 28.142-8.658-27.082-27.050-49.81-50.992-64.159 23.46 2.799 45.812 9.034 66.607 18.26-15.547-23.259-35.207-43.686-57.869-60.034z" />
<glyph unicode="twitter" d="M1024 765.582c-37.676-16.708-78.164-28.002-120.66-33.080 43.372 26 76.686 67.17 92.372 116.23-40.596-24.078-85.556-41.56-133.41-50.98-38.32 40.83-92.922 66.34-153.346 66.34-116.022 0-210.088-94.058-210.088-210.078 0-16.466 1.858-32.5 5.44-47.878-174.6 8.764-329.402 92.4-433.018 219.506-18.084-31.028-28.446-67.116-28.446-105.618 0-72.888 37.088-137.192 93.46-174.866-34.438 1.092-66.832 10.542-95.154 26.278-0.020-0.876-0.020-1.756-0.020-2.642 0-101.788 72.418-186.696 168.522-206-17.626-4.8-36.188-7.372-55.348-7.372-13.538 0-26.698 1.32-39.528 3.772 26.736-83.46 104.32-144.206 196.252-145.896-71.9-56.35-162.486-89.934-260.916-89.934-16.958 0-33.68 0.994-50.116 2.94 92.972-59.61 203.402-94.394 322.042-94.394 386.422 0 597.736 320.124 597.736 597.744 0 9.108-0.206 18.168-0.61 27.18 41.056 29.62 76.672 66.62 104.836 108.748z" />
<glyph unicode="pinterestcircle" d="M513.011 947.494c-275.865 0-499.494-223.63-499.494-499.494s223.63-499.494 499.494-499.494 499.494 223.63 499.494 499.494-223.63 499.494-499.494 499.494zM578.537 283.583c-39.034 0-75.741 21.102-88.299 45.061 0 0-21.002-83.287-25.434-99.367-15.649-56.799-61.698-113.645-65.267-118.301-2.492-3.239-8.006-2.219-8.583 2.070-0.999 7.236-12.733 78.911 1.082 137.375 6.931 29.356 46.496 196.985 46.496 196.985s-11.533 23.084-11.533 57.204c0 53.573 31.058 93.569 69.718 93.569 32.873 0 48.756-24.682 48.756-54.271 0-33.057-21.049-82.48-31.917-128.275-9.073-38.361 19.235-69.638 57.054-69.638 68.479 0 114.609 87.977 114.609 192.208 0 79.219-53.337 138.537-150.411 138.537-109.634 0-177.986-81.781-177.986-173.14 0-31.488 9.305-53.716 23.861-70.892 6.684-7.904 7.621-11.081 5.199-20.151-1.762-6.658-5.713-22.667-7.387-29.012-2.399-9.166-9.818-12.431-18.095-9.046-50.487 20.618-74.028 75.93-74.028 138.108 0 102.685 86.604 225.828 258.355 225.828 138.037 0 228.863-99.862 228.863-207.097-0.002-141.81-78.848-247.755-195.059-247.755z" />
<glyph unicode="phonesquare" d="M834.479 254.903q0 7.152-1.3 10.403-1.95 5.201-25.031 19.18t-57.538 32.183l-34.459 18.854q-3.25 1.95-12.353 8.452t-16.254 9.751-13.653 3.25q-11.703 0-30.557-21.13t-37.058-42.586-28.607-21.455q-4.551 0-10.729 2.275t-10.077 4.226-11.053 6.177-9.102 5.526q-64.365 35.759-110.852 82.245t-82.245 110.852q-1.3 1.95-5.526 9.102t-6.177 11.053-4.226 10.077-2.275 10.729q0 8.452 13.328 21.78t29.257 25.031 29.257 25.681 13.328 23.73q0 6.501-3.25 13.653t-9.751 16.254-8.452 12.353q-1.95 3.902-9.751 18.53t-16.254 29.582-17.23 30.883-16.254 26.332-10.729 11.703-10.403 1.3q-31.209 0-65.666-14.303-29.907-13.653-52.013-61.44t-22.106-84.845q0-10.403 1.626-22.106t3.25-19.83 5.852-21.455 6.501-19.18 8.127-21.455 7.152-19.505q39.010-106.626 140.759-208.377t208.377-140.759q3.902-1.3 19.505-7.152t21.455-8.127 19.18-6.501 21.455-5.852 19.83-3.25 22.106-1.626q37.058 0 84.845 22.106t61.44 52.013q14.303 34.459 14.303 65.666zM1000.919 760.077v-624.151q0-77.369-54.939-132.307t-132.307-54.939h-624.151q-77.369 0-132.307 54.939t-54.939 132.307v624.151q0 77.369 54.939 132.307t132.307 54.939h624.151q77.369 0 132.307-54.939t54.939-132.307z" />
<glyph unicode="phone" d="M704 320c-64-64-64-128-128-128s-128 64-192 128-128 128-128 192 64 64 128 128-128 256-192 256-192-192-192-192c0-128 131.5-387.5 256-512s384-256 512-256c0 0 192 128 192 192s-192 256-256 192z" />
<glyph unicode="mobile" d="M736 960h-448c-52.8 0-96-43.2-96-96v-832c0-52.8 43.2-96 96-96h448c52.8 0 96 43.2 96 96v832c0 52.8-43.2 96-96 96zM384 912h256v-32h-256v32zM512 0c-35.346 0-64 28.654-64 64s28.654 64 64 64 64-28.654 64-64-28.654-64-64-64zM768 192h-512v640h512v-640z" />
<glyph unicode="linkedincircle" d="M513.012 948.016c-276.151 0-500.016-223.863-500.016-500.016s223.863-500.016 500.016-500.016 500.016 223.863 500.016 500.016-223.863 500.016-500.016 500.016zM379.607 206.265h-109.783v354.678h109.783v-354.678zM324.193 607.391c-35.853 0-64.919 29.302-64.919 65.446s29.067 65.446 64.919 65.446c35.851 0 64.917-29.302 64.917-65.446s-29.067-65.446-64.917-65.446zM791.021 206.265h-109.25c0 0 0 135.116 0 186.178s-19.395 79.568-59.773 79.568c-43.941 0-66.9-29.689-66.9-79.568 0-54.624 0-186.178 0-186.178h-105.295v354.678h105.295v-47.766c0 0 31.669 58.587 106.877 58.587 75.211 0 129.045-45.919 129.045-140.922 0.002-95.004 0.002-224.577 0.002-224.577z" />
<glyph unicode="linkedin" d="M852 960h-680c-94.6 0-172-77.4-172-172v-680c0-94.6 77.4-172 172-172h680c94.6 0 172 77.4 172 172v680c0 94.6-77.4 172-172 172zM384 128h-128v448h128v-448zM320 640c-35.346 0-64 28.654-64 64s28.654 64 64 64 64-28.654 64-64-28.654-64-64-64zM832 128h-128v256c0 35.346-28.654 64-64 64s-64-28.654-64-64v-256h-128v448h128v-79.472c26.398 36.264 66.752 79.472 112 79.472 79.53 0 144-71.634 144-160v-288z" />
<glyph unicode="instagramcircle" d="M406.539 448.013c0 59.589 48.3 107.875 107.89 107.875 59.586 0 107.899-48.288 107.899-107.875 0-59.582-48.313-107.901-107.899-107.901-59.589 0-107.89 48.319-107.89 107.901zM687.037 448.013c0-95.35-77.279-172.627-172.61-172.627-95.329 0-172.61 77.277-172.61 172.627 0 14.917 2.11 29.35 5.667 43.164h-48.844v-237.369c0-11.903 9.663-21.556 21.597-21.556h388.381c11.935 0 21.601 9.653 21.601 21.556v237.369h-48.844c3.562-13.813 5.661-28.246 5.661-43.164zM708.621 663.783h-64.718c-11.92 0-21.575-9.663-21.575-21.578v-64.739c0-11.908 9.655-21.58 21.575-21.58h64.718c11.935 0 21.601 9.67 21.601 21.58v64.739c0 11.916-9.665 21.578-21.601 21.578zM1012.016 448c0-276.151-223.863-500.016-500.016-500.016s-500.016 223.863-500.016 500.016 223.863 500.016 500.016 500.016 500.016-223.863 500.016-500.016zM794.935 663.783c0 35.751-28.972 64.722-64.716 64.722h-431.579c-35.739 0-64.72-28.972-64.72-64.722v-431.533c0-35.769 28.981-64.758 64.72-64.758h431.581c35.747 0 64.716 28.989 64.716 64.758v431.533z" />
<glyph unicode="instagramaltcircle" d="M749.615 666.288v-61.445c0-9.852-7.988-17.838-17.842-17.838h-60.124c-9.854 0-17.84 7.988-17.84 17.838v61.445c0 9.852 7.986 17.84 17.84 17.84h60.124c9.854 0 17.842-7.988 17.842-17.84zM519.282 363.505c45.249 0 81.924 36.678 81.924 81.924 0 45.249-36.676 81.924-81.924 81.924s-81.926-36.676-81.926-81.924c0-45.244 36.678-81.924 81.926-81.924zM1012.016 448c0-276.151-223.863-500.016-500.016-500.016s-500.016 223.863-500.016 500.016 223.863 500.016 500.016 500.016 500.016-223.863 500.016-500.016zM800.448 528.753h-164.265c16.738-23.518 26.62-52.257 26.62-83.323 0-79.463-64.422-143.886-143.886-143.886-79.466 0-143.888 64.422-143.888 143.886 0 31.063 9.877 59.805 26.618 83.323h-163.53v-252.167c0-61.424 49.797-111.217 111.219-111.217h339.894c61.424 0 111.217 49.795 111.217 111.217v252.167zM518.917 334.579c61.123 0 110.848 49.728 110.848 110.85 0 33.185-14.677 62.988-37.855 83.323-8.134 7.132-17.307 13.088-27.27 17.619-13.951 6.346-29.421 9.91-45.723 9.91-16.299 0-31.773-3.566-45.727-9.91-9.962-4.532-19.136-10.489-27.268-17.619-23.178-20.333-37.858-50.138-37.858-83.323 0-61.12 49.73-110.85 110.852-110.85zM800.448 619.415c0 61.426-49.795 111.217-111.217 111.217h-303.924v-140.213h-22.802v140.213h-13.17c-0.861 0-1.711-0.044-2.571-0.063v-140.15h-22.806v137.271c-5.522-1.29-10.886-2.983-16.059-5.063v-132.208h-22.804v119.761c-28.418-20.149-46.982-53.277-46.982-90.765v-73.043h178.292c26.095 26.499 62.375 42.945 102.508 42.945 40.127 0 76.407-16.447 102.508-42.945h179.023v73.043z" />
<glyph unicode="instagram" d="M854 960h-684c-93.5 0-170-76.5-170-170v-684c0-93.5 76.5-170 170-170h684c93.5 0 170 76.5 170 170v684c0 93.5-76.5 170-170 170zM327.8 512h368.4c6.988-20.058 10.8-41.59 10.8-64 0-107.524-87.476-195-195-195s-195 87.476-195 195c0 22.41 3.812 43.942 10.8 64zM896 511.95v-383.95c0-35.2-28.8-64-64-64h-640c-35.2 0-64 28.8-64 64v384h100.108c-4.642-20.602-7.108-42.016-7.108-64 0-160.458 130.542-291 291-291s291 130.542 291 291c0 21.984-2.464 43.398-7.108 64l100.108-0.050zM896 736c0-17.6-14.4-32-32-32h-64c-17.6 0-32 14.4-32 32v64c0 17.6 14.4 32 32 32h64c17.6 0 32-14.4 32-32v-64z" />
<glyph unicode="googlepluscircle" d="M554.159 264.356c0-49.146-39.911-87.539-122.531-87.539-64.626 0-111.295 40.909-111.295 90.051 0 48.157 54.764 89.705 119.387 88.993 71.701-0.002 114.437-44.657 114.437-91.506zM1013.027 445.573c0-276.151-223.863-500.016-500.016-500.016s-500.016 223.863-500.016 500.016 223.863 500.016 500.016 500.016 500.016-223.863 500.016-500.016zM609.826 270.069c0 45.367-16.941 75.009-68.196 113.413-51.985 37.911-64.686 59.329-15.069 97.692 27.959 21.617 47.552 50.433 47.552 86.013 0 38.761-15.851 73.927-45.654 91.003h42.244l35.962 37.746c0 0-135.572 0-160.934 0-100.465 0-149.726-60.218-149.726-126.454 0-67.694 46.438-121.008 137.12-121.008-14.059-28.382-8.413-54.598 14.59-73.345-154.877 0-188.018-67.958-188.018-120.309 0-67.829 77.971-108.156 171.469-108.156 127.842 0.002 178.658 67.753 178.658 123.407zM819.717 614.267h-74.247v74.244h-37.12v-74.244h-74.247v-37.122h74.247v-74.244h37.12v74.244h74.247v37.122zM509.45 564.766c-7.483 56.958-44.591 103.691-87.949 104.993-43.373 1.292-72.464-42.301-64.971-99.273 7.488-56.961 48.708-96.749 92.089-98.055 43.359-1.292 68.314 35.37 60.832 92.335z" />
<glyph unicode="googleplus" d="M559.066 896c0 0-200.956 0-267.94 0-120.12 0-233.17-91.006-233.17-196.422 0-107.726 81.882-194.666 204.088-194.666 8.498 0 16.756 0.17 24.842 0.752-7.93-15.186-13.602-32.288-13.602-50.042 0-29.938 16.104-54.21 36.468-74.024-15.386 0-30.242-0.448-46.452-0.448-148.782 0.002-263.3-94.758-263.3-193.020 0-96.778 125.542-157.314 274.334-157.314 169.624 0 263.306 96.244 263.306 193.028 0 77.6-22.896 124.072-93.686 174.134-24.216 17.144-70.53 58.836-70.53 83.344 0 28.72 8.196 42.868 51.428 76.646 44.312 34.624 75.672 83.302 75.672 139.916 0 67.406-30.020 133.098-86.372 154.772h84.954l59.96 43.344zM465.48 240.542c2.126-8.972 3.284-18.206 3.284-27.628 0-78.2-50.392-139.31-194.974-139.31-102.842 0-177.116 65.104-177.116 143.3 0 76.642 92.126 140.444 194.964 139.332 24-0.254 46.368-4.116 66.67-10.69 55.826-38.826 95.876-60.762 107.172-105.004zM300.818 532.224c-69.038 2.064-134.636 77.226-146.552 167.86-11.916 90.666 34.37 160.042 103.388 157.99 69.010-2.074 134.638-74.814 146.558-165.458 11.906-90.66-34.39-162.458-103.394-160.392zM832 704v192h-64v-192h-192v-64h192v-192h64v192h192v64z" />
<glyph unicode="facebookcircle" d="M513.012 948.016c-276.151 0-500.016-223.863-500.016-500.016s223.863-500.016 500.016-500.016 500.016 223.863 500.016 500.016-223.863 500.016-500.016 500.016zM660.997 653.852c0 0-50.011 0-69.878 0-24.666 0-29.806-10.105-29.806-35.628 0-21.238 0-61.662 0-61.662h99.685l-9.59-108.246h-90.095v-323.377h-129.13v322.004h-67.153v109.615h67.153c0 0 0 15.76 0 86.325 0 81.020 43.325 123.322 139.414 123.322 15.739 0 89.403 0 89.403 0v-112.355z" />
<glyph unicode="facebook" d="M575.87-64h-191.87v512h-128v176.45l128 0.058-0.208 103.952c0 143.952 39.034 231.54 208.598 231.54h141.176v-176.484h-88.23c-66.032 0-69.206-24.656-69.206-70.684l-0.262-88.324h158.69l-18.704-176.45-139.854-0.058-0.13-512z" />
<glyph unicode="emailcircle" d="M512 931.886c-267.244 0-483.886-216.642-483.886-483.886s216.642-483.886 483.886-483.886 483.886 216.642 483.886 483.886-216.642 483.886-483.886 483.886zM803.168 663.061l-288.806-221.501-288.347 221.501h577.154zM224.015 602.393l169.893-130.506-169.893-169.893v300.4zM224.722 232.941l208.637 208.637 80.978-62.201 80.847 62.003 208.442-208.437h-578.903zM804.681 301.643l-170.018 170.018 170.018 130.393v-300.411z" />
<glyph unicode="email" d="M928 832h-832c-52.8 0-96-43.2-96-96v-640c0-52.8 43.2-96 96-96h832c52.8 0 96 43.2 96 96v640c0 52.8-43.2 96-96 96zM398.74 409.628l-270.74-210.892v501.642l270.74-290.75zM176.38 704h671.24l-335.62-252-335.62 252zM409.288 398.302l102.712-110.302 102.71 110.302 210.554-270.302h-626.528l210.552 270.302zM625.26 409.628l270.74 290.75v-501.642l-270.74 210.892z" />
<glyph unicode="dribble" d="M512.002-64c-282.32 0-512.002 229.682-512.002 512s229.682 512 512.002 512c282.322 0 511.998-229.682 511.998-512s-229.676-512-511.998-512zM943.798 377.914c-14.962 4.72-135.364 40.632-272.41 18.698 57.204-157.186 80.478-285.208 84.958-311.808 98.114 66.336 167.958 171.426 187.452 293.11zM682.832 44.762c-6.506 38.37-31.898 172.090-93.298 331.64-0.96-0.328-1.922-0.64-2.88-0.972-246.67-85.958-335.216-257.016-343.086-273.104 74.15-57.824 167.336-92.32 268.436-92.32 60.58 0 118.318 12.39 170.828 34.756zM187.098 154.922c9.908 16.96 129.93 215.684 355.476 288.594 5.704 1.84 11.448 3.57 17.236 5.2-10.98 24.844-22.94 49.714-35.456 74.216-218.398-65.36-430.324-62.63-449.46-62.236-0.132-4.442-0.222-8.89-0.222-13.366 0-112.32 42.58-214.874 112.426-292.408zM83.912 536.904c19.558-0.26 199.736-1.042 404.302 53.282-72.46 128.812-150.612 237.11-162.142 252.92-122.348-57.708-213.802-170.496-242.16-306.202zM409.518 872.5c12.088-16.184 91.518-124.348 163.18-256.014 155.508 58.284 221.34 146.77 229.208 157.974-77.23 68.518-178.782 110.2-289.902 110.2-35.29 0-69.6-4.232-102.486-12.16zM850.522 723.888c-9.216-12.474-82.504-106.418-244.202-172.434 10.178-20.832 19.934-42.018 29.016-63.344 3.216-7.56 6.354-15.084 9.418-22.57 145.518 18.298 290.104-11.028 304.526-14.078-0.968 103.224-37.85 198.010-98.758 272.426z" />
</font>
</defs>
</svg>
